<svg width="135" height="148" viewBox="0 0 135 148" fill="none" xmlns="http://www.w3.org/2000/svg">
<path fill-rule="evenodd" clip-rule="evenodd" d="M0.375488 147.639H8.96604V119.171L31.6698 147.639H38.861V102.774H30.3153V130.43L8.32725 102.765H0.375488V147.63V147.639ZM77.684 113.479H88.1055L94.4207 123.33L100.798 113.479H110.963L99.4734 130.047L111.565 147.641H101.138L94.2285 136.959L87.3193 147.641H77.1478L89.1737 130.239L77.684 113.479ZM126.433 120.183V136.382C126.389 136.86 126.449 137.341 126.61 137.793C126.771 138.245 127.029 138.657 127.365 138.999C127.702 139.341 128.109 139.606 128.558 139.774C129.007 139.943 129.488 140.011 129.966 139.975C131.353 139.927 132.72 139.638 134.006 139.121H135V145.927C132.831 147.142 130.375 147.749 127.89 147.686C121.94 147.686 117.911 145.318 117.911 137.386V120.183H113.683L113.636 113.479H117.909V104.934H126.454V113.479H135L134.959 120.183H126.433ZM61.0092 147.903C63.6664 148.01 66.3124 147.504 68.7428 146.425C71.1733 145.346 73.3232 143.722 75.0263 141.68L69.4609 137.467C68.3789 138.571 67.0835 139.443 65.6537 140.031C64.2239 140.619 62.6895 140.909 61.1438 140.885C59.1851 141.033 57.2417 140.445 55.6923 139.238C54.1429 138.031 53.0985 136.29 52.7627 134.354H76.6265C76.6906 133.483 76.7547 132.28 76.7547 131.532C76.7547 122.078 71.5097 113.432 60.0585 113.432C57.7926 113.412 55.5459 113.85 53.4534 114.72C51.361 115.589 49.466 116.873 47.8823 118.494C46.2986 120.115 45.0589 122.039 44.2378 124.151C43.4166 126.263 43.031 128.519 43.1039 130.784C43.1039 141.112 50.7181 147.897 61.0178 147.897L61.0092 147.903ZM52.6281 128.118C53.395 123.826 56.0186 121.027 60.05 121.027C64.1434 121.027 66.7028 123.888 67.2796 128.118H52.6366H52.6281Z" fill="white"/>
<path fill-rule="evenodd" clip-rule="evenodd" d="M37.3952 0.459961H97.215C104.294 0.459961 110.034 6.19901 110.034 13.2785V73.0983C110.034 80.1778 104.294 85.9168 97.215 85.9168H37.3952C30.3157 85.9168 24.5767 80.1778 24.5767 73.0983V13.2785C24.5767 6.19901 30.3157 0.459961 37.3952 0.459961ZM86.5322 17.5559C88.232 17.5559 89.8622 18.2311 91.0642 19.4331C92.2662 20.6351 92.9414 22.2653 92.9414 23.9651V36.7837C92.9414 38.4835 92.2662 40.1137 91.0642 41.3157C89.8622 42.5177 88.232 43.1929 86.5322 43.1929C84.8323 43.1929 83.2021 42.5177 82.0001 41.3157C80.7982 40.1137 80.1229 38.4835 80.1229 36.7837V23.9651C80.1229 22.2653 80.7982 20.6351 82.0001 19.4331C83.2021 18.2311 84.8323 17.5559 86.5322 17.5559ZM43.5281 19.4167C44.7481 18.1969 46.4027 17.5116 48.1279 17.5116C49.853 17.5116 51.5076 18.1969 52.7276 19.4167L91.0187 57.7014C92.2394 58.9221 92.9252 60.5779 92.9252 62.3043C92.9252 64.0307 92.2394 65.6864 91.0187 66.9072C89.7979 68.128 88.1422 68.8138 86.4157 68.8138C84.6893 68.8138 83.0336 68.128 81.8128 66.9072L54.4405 39.5318V62.4208C54.4405 64.1207 53.7652 65.7509 52.5633 66.9529C51.3613 68.1548 49.7311 68.8301 48.0312 68.8301C46.3314 68.8301 44.7012 68.1548 43.4992 66.9529C42.2972 65.7509 41.622 64.1207 41.622 62.4208V23.9653H41.6222C41.6289 23.1285 41.797 22.3008 42.1174 21.5275C42.4444 20.7381 42.9238 20.0208 43.5281 19.4167Z" fill="white"/>
</svg>
