<svg width="277" height="277" viewBox="0 0 277 277" fill="none" xmlns="http://www.w3.org/2000/svg">
<path d="M9.25862 148.266C11.0888 148.05 12.7037 148.374 14.1033 149.453C15.5028 150.532 16.2565 151.935 16.4718 153.877C16.6871 155.711 16.2565 157.33 15.1799 158.733C14.1033 160.136 12.5961 160.783 10.7658 161.107L8.07437 161.431C6.24416 161.646 4.62927 161.323 3.2297 160.244C1.83014 159.272 1.07652 157.762 0.861203 155.927C0.645884 153.985 1.07652 152.474 2.15311 151.071C3.2297 149.669 4.73693 148.913 6.56714 148.697L9.25862 148.266ZM6.89012 151.719C5.70586 151.827 4.73693 152.258 4.09098 153.014C3.44502 153.661 3.12205 154.524 3.2297 155.604C3.33736 156.683 3.87566 157.438 4.62927 157.87C5.49055 158.301 6.45948 158.517 7.64373 158.409L10.4429 158.085C11.6271 157.977 12.5961 157.546 13.242 156.898C13.888 156.251 14.2109 155.388 14.1033 154.309C13.9956 153.23 13.4573 152.474 12.7037 152.043C11.8424 151.503 10.8735 151.395 9.68925 151.503L6.89012 151.719Z" fill="#363031"/>
<path d="M11.9502 137.691L12.0578 142.654L15.3953 143.626V146.863L0 141.899V138.77L15.1799 133.374V136.612L11.9502 137.691ZM9.68933 141.899L9.58167 138.446L4.19871 140.281V140.388L9.68933 141.899Z" fill="#363031"/>
<path d="M10.3355 119.346C12.1657 119.562 13.6729 120.317 14.7495 121.612C15.8261 122.907 16.2567 124.526 16.1491 126.36C15.9337 128.195 15.1801 129.705 13.8882 130.785C12.5963 131.864 10.9814 132.295 9.04356 132.079L6.35208 131.756C4.52188 131.54 3.01465 130.785 1.93806 129.49C0.861464 128.195 0.323168 126.576 0.538487 124.742C0.753805 122.799 1.50742 121.397 2.79933 120.317C4.09124 119.238 5.70613 118.807 7.64399 119.023L10.3355 119.346ZM7.21335 122.044C6.0291 121.936 5.06017 122.152 4.1989 122.691C3.33763 123.231 2.90699 123.986 2.79933 125.065C2.69167 126.145 3.01465 126.9 3.6606 127.547C4.41422 128.195 5.27549 128.626 6.45974 128.734L9.25888 129.058C10.4431 129.166 11.5197 128.95 12.2733 128.518C13.1346 127.979 13.5652 127.224 13.6729 126.145C13.7806 125.065 13.4576 124.202 12.8116 123.555C12.1657 122.907 11.1967 122.476 9.90483 122.368L7.21335 122.044Z" fill="#363031"/>
<path d="M13.2422 109.311L17.8715 107.908L17.4409 109.85L12.7039 111.685H12.4886L9.25879 107.8L9.68943 105.858L13.2422 109.311ZM14.1035 105.858L18.7328 104.455L18.3022 106.397L13.5652 108.232H13.3498L10.1201 104.347L10.5507 102.405L14.1035 105.858Z" fill="#363031"/>
<path d="M10.7661 99.2754C9.15116 98.7359 8.07457 97.8726 7.53628 96.5777C6.99798 95.2828 7.10564 93.88 7.64394 92.2614C8.28989 90.5349 9.25882 89.4558 10.7661 88.8083C12.2733 88.1609 13.8882 88.1609 15.6107 88.8083L18.5175 89.7795C20.2401 90.427 21.532 91.3981 22.2856 92.8009C23.0392 94.2037 23.1469 95.7145 22.5009 97.441C21.8549 99.1675 20.9937 100.354 19.8094 101.002C18.6252 101.649 17.2256 101.649 15.7184 101.11L16.6873 98.3042C17.6562 98.628 18.4099 98.7359 18.9481 98.4121C19.4864 98.0884 20.0247 97.6568 20.3477 96.6856C20.6707 95.8224 20.563 95.067 20.0247 94.3116C19.4864 93.5563 18.6252 93.0168 17.5486 92.693L17.1179 92.5851L15.5031 97.0093L13.2422 96.254L14.8571 91.8298L14.6418 91.7219C13.5652 91.2902 12.5963 91.2902 11.6273 91.3981C10.7661 91.6139 10.2278 92.1535 9.90478 93.0167C9.5818 93.88 9.5818 94.6354 9.90478 95.1749C10.2278 95.7144 10.8737 96.1461 11.735 96.4698L10.7661 99.2754Z" fill="#363031"/>
<path d="M21.2088 83.305L20.6705 84.2761L26.3765 87.0817L25.0846 89.8874L11.3042 83.1971L12.5961 80.3914L18.302 83.0891L18.625 82.3338L14.857 75.8593L16.4718 72.4062L20.5629 80.2835L30.4675 78.6649L28.745 82.2259L21.2088 83.305Z" fill="#363031"/>
<path d="M32.1903 64.2052C33.8052 65.1764 34.7741 66.5792 35.2047 68.1978C35.6354 69.8164 35.3124 71.543 34.3435 73.0537C33.3745 74.6723 31.975 75.6435 30.3601 75.9672C28.7452 76.2909 27.0227 75.9672 25.5154 74.996L23.1469 73.4853C21.532 72.622 20.4554 71.2192 20.1325 69.6006C19.7018 67.982 20.0248 66.3634 20.9937 64.7448C21.9627 63.1261 23.3622 62.155 24.9771 61.8312C26.6997 61.5075 28.3146 61.8312 29.8218 62.8024L32.1903 64.2052ZM28.2069 65.2843C27.238 64.6368 26.1614 64.421 25.3001 64.421C24.4388 64.421 23.5776 64.9606 23.0393 65.9317C22.501 66.795 22.3933 67.6583 22.7163 68.6294C23.0393 69.4927 23.6852 70.2481 24.7618 70.8955L27.1303 72.4062C28.2069 73.0537 29.1758 73.3774 30.1448 73.2695C31.1137 73.1616 31.8673 72.7299 32.4056 71.8667C32.9439 71.0034 33.0516 70.0322 32.7286 69.169C32.4056 68.3057 31.7597 67.4425 30.6831 66.795L28.2069 65.2843Z" fill="#363031"/>
<path d="M35.0968 49.6377L32.4054 53.0907L42.5253 61.0759L40.5874 63.4499L30.4675 55.4647L27.776 58.8099L25.9458 57.2991L33.2666 48.019L35.0968 49.6377Z" fill="#363031"/>
<path d="M50.1692 43.5948C51.5687 44.8897 52.2147 46.4004 52.2147 48.1269C52.2147 49.8534 51.5687 51.3642 50.2768 52.767C48.9849 54.1698 47.4777 54.8172 45.7551 54.8172C44.0326 54.8172 42.5254 54.1698 41.2334 52.8749L39.2956 50.9325C38.0037 49.6376 37.2501 48.1269 37.2501 46.4004C37.1424 44.6739 37.7884 43.1631 39.1879 41.8682C40.4798 40.4654 41.9871 39.818 43.7096 39.818C45.4322 39.818 46.9394 40.4654 48.339 41.7603L50.1692 43.5948ZM46.0781 43.8106C45.2168 42.9473 44.3556 42.5157 43.3866 42.4078C42.4177 42.2999 41.5564 42.6236 40.8028 43.379C40.0492 44.1343 39.8339 44.9976 39.9415 45.9688C40.0492 46.9399 40.5875 47.8032 41.4488 48.6665L43.3866 50.6088C44.2479 51.4721 45.2168 51.9037 46.0781 52.0116C47.047 52.1195 47.9083 51.7958 48.5543 51.0404C49.3079 50.2851 49.6309 49.4218 49.4155 48.4506C49.3079 47.4795 48.7696 46.6162 47.9083 45.7529L46.0781 43.8106Z" fill="#363031"/>
<path d="M65.8875 38.7389L63.519 40.6813L59.5356 35.7175L54.6909 39.6022L58.6743 44.5659L56.3058 46.5083L46.7241 34.5305L49.0926 32.5881L53.1837 37.7677L58.0283 33.883L53.9373 28.7035L56.3058 26.7611L65.8875 38.7389Z" fill="#363031"/>
<path d="M68.3637 26.9771L71.5934 24.9269L72.993 27.1929L69.7632 29.2432L72.1317 32.9121L69.6556 34.5307L67.2871 30.8618L64.0573 32.9121L62.6577 30.646L65.8875 28.5957L63.6266 25.1427L66.1028 23.524L68.3637 26.9771Z" fill="#363031"/>
<path d="M77.084 25.0347L72.8853 22.4449L74.6078 21.5816L79.1295 23.8477L79.2371 24.0635L78.4835 29.0273L76.761 29.9985L77.084 25.0347ZM80.3137 23.4161L76.115 20.8263L77.8376 19.8551L82.3593 22.1212L82.4669 22.337L81.7133 27.3008L79.9908 28.2719L80.3137 23.4161Z" fill="#363031"/>
<path d="M106.26 12.9491L95.3859 16.1863L94.74 13.9202L105.614 10.683L106.26 12.9491Z" fill="#363031"/>
<path d="M114.334 7.22975C114.011 5.61112 114.334 4.20832 115.195 3.12924C116.057 2.05016 117.348 1.40271 119.179 1.18689C120.901 0.971077 122.408 1.2948 123.7 2.37388C124.885 3.45296 125.638 4.85577 125.961 6.69021L126.392 9.71163C126.607 11.5461 126.284 13.1647 125.423 14.4596C124.454 15.7545 123.162 16.5098 121.44 16.8336C119.609 17.0494 118.21 16.8336 117.133 16.0782C116.057 15.3229 115.411 14.1359 115.195 12.4093V12.3014L118.102 11.8698C118.21 12.841 118.533 13.5963 119.071 13.92C119.609 14.2438 120.255 14.4596 121.224 14.3517C122.085 14.2438 122.731 13.8121 123.162 12.9489C123.593 12.1935 123.7 11.2223 123.485 10.0354L123.27 9.71163L118.64 10.3591L118.317 7.9851L122.947 7.33765V7.12184C122.839 5.93485 122.408 5.07158 121.87 4.31623C121.332 3.66878 120.578 3.34506 119.609 3.45296C118.748 3.56087 118.102 3.8846 117.671 4.42414C117.348 4.96368 117.241 5.71903 117.348 6.69021L114.334 7.22975Z" fill="#363031"/>
<path d="M139.311 2.37398L134.897 2.48189L135.328 15.4309L132.205 15.5388L131.775 2.58979L127.468 2.6977L127.361 0.323724L139.203 0L139.311 2.37398Z" fill="#363031"/>
<path d="M153.629 9.92753C153.522 11.762 152.768 13.2727 151.476 14.4597C150.184 15.6467 148.677 16.0783 146.739 15.9704C144.801 15.8625 143.402 15.1071 142.325 13.8122C141.249 12.5173 140.71 10.8987 140.926 9.06427L141.141 6.25866C141.249 4.42422 142.002 2.91351 143.187 1.72652C144.478 0.53953 145.986 0.107898 147.924 0.215806C149.861 0.323714 151.369 1.07907 152.445 2.37397C153.522 3.66886 154.06 5.28749 153.952 7.12192L153.629 9.92753ZM150.723 6.90611C150.83 5.71912 150.615 4.74794 150.077 3.88468C149.538 3.12932 148.785 2.58978 147.708 2.58978C146.632 2.48188 145.878 2.8056 145.232 3.56096C144.586 4.31631 144.263 5.28749 144.155 6.47447L143.94 9.28008C143.832 10.4671 144.048 11.5462 144.586 12.3015C145.124 13.0569 145.878 13.5964 146.955 13.5964C148.031 13.7043 148.892 13.3806 149.538 12.6252C150.184 11.8699 150.507 10.8987 150.615 9.71172L150.723 6.90611Z" fill="#363031"/>
<path d="M174.085 14.1361C173.654 15.9705 172.685 17.3733 171.286 18.2366C169.886 19.2078 168.163 19.4236 166.333 18.992C164.503 18.5603 163.103 17.5892 162.242 16.1863C161.381 14.7835 161.166 13.057 161.596 11.2226L162.242 8.52487C162.673 6.69043 163.642 5.28763 165.041 4.42436C166.441 3.45319 168.056 3.23738 169.886 3.66901C171.716 4.10064 173.116 5.07181 173.977 6.58253C174.838 8.09324 175.054 9.71186 174.623 11.5463L174.085 14.1361ZM171.716 10.683C172.039 9.49604 171.931 8.52487 171.501 7.66161C171.07 6.79834 170.424 6.2588 169.348 5.93508C168.379 5.71926 167.517 5.93508 166.764 6.47462C166.01 7.12207 165.472 7.98533 165.257 9.17232L164.611 11.87C164.288 13.057 164.395 14.1361 164.826 14.9994C165.257 15.8626 165.903 16.4022 166.979 16.7259C168.056 16.9417 168.917 16.8338 169.671 16.1863C170.424 15.5389 170.963 14.6756 171.178 13.4886L171.716 10.683Z" fill="#363031"/>
<path d="M180.76 16.2941L179.683 15.8625L177.53 21.9053L174.623 20.8263L179.791 6.47449L182.697 7.55357L180.544 13.4885L181.406 13.8122L187.434 9.38801L190.987 10.6829L183.559 15.5388L186.143 25.2505L182.482 23.9556L180.76 16.2941Z" fill="#363031"/>
<path d="M200.785 25.2504C199.923 26.977 198.739 28.0561 197.124 28.7035C195.509 29.243 193.894 29.1351 192.172 28.2719C190.449 27.4086 189.373 26.2216 188.834 24.603C188.296 22.9844 188.511 21.3658 189.265 19.6392L190.449 17.1573C191.311 15.4308 192.495 14.3517 194.11 13.7043C195.725 13.1647 197.339 13.2726 199.062 14.028C200.785 14.8913 201.861 16.0783 202.399 17.6969C202.938 19.3155 202.722 21.042 201.969 22.6606L200.785 25.2504ZM199.277 21.4737C199.816 20.3946 199.923 19.4234 199.816 18.4522C199.6 17.4811 199.062 16.8336 198.093 16.2941C197.124 15.8624 196.263 15.8624 195.402 16.2941C194.54 16.7257 193.894 17.4811 193.356 18.5601L192.172 21.042C191.634 22.1211 191.418 23.2002 191.634 24.0635C191.849 25.0346 192.387 25.6821 193.356 26.2216C194.325 26.6532 195.186 26.7612 196.048 26.3295C196.909 25.8979 197.662 25.1425 198.201 24.0635L199.277 21.4737Z" fill="#363031"/>
<path d="M218.225 25.6821L209.936 38.5232L207.352 36.7967L214.35 25.898L210.689 23.524L208.213 27.4087C206.598 29.8906 205.091 31.4013 203.584 32.0487C202.076 32.6962 200.569 32.4804 199.062 31.4013L198.631 31.1855L199.923 29.2431L200.246 29.4589C201 29.9985 201.861 29.9985 202.615 29.4589C203.368 28.9194 204.337 27.7324 205.629 25.79L209.397 19.963L218.225 25.6821Z" fill="#363031"/>
<path d="M225.438 43.1633C224.254 44.5661 222.747 45.4293 221.132 45.6451C219.409 45.861 217.902 45.3214 216.395 44.1344C214.888 42.9474 214.134 41.4367 214.026 39.7102C213.919 37.9837 214.457 36.473 215.641 34.9622L217.364 32.8041C218.548 31.4013 220.055 30.538 221.67 30.3222C223.393 30.1064 224.9 30.6459 226.407 31.8329C227.914 33.0199 228.668 34.5306 228.776 36.2571C228.883 37.9837 228.345 39.4944 227.161 41.0051L225.438 43.1633ZM224.9 39.0628C225.654 38.0916 226.084 37.2283 226.084 36.2571C226.084 35.286 225.761 34.4227 224.9 33.7753C224.146 33.1278 223.285 32.912 222.316 33.1278C221.347 33.3436 220.486 33.8832 219.732 34.8543L218.01 37.0125C217.256 37.9837 216.826 38.8469 216.826 39.8181C216.826 40.7893 217.149 41.5446 218.01 42.3C218.871 42.9474 219.732 43.1633 220.594 42.9474C221.563 42.7316 222.424 42.1921 223.177 41.2209L224.9 39.0628Z" fill="#363031"/>
<path d="M236.742 56.0043L237.927 57.2992L236.096 58.9179L234.912 57.623L232.436 59.7811L230.391 57.5151L232.867 55.3569L228.776 50.7169L230.068 49.422L241.91 47.4796L243.956 49.8536L236.742 56.0043ZM232.328 51.0406L234.697 53.7383L238.896 50.0694V49.9615L238.142 50.1773L232.328 51.0406Z" fill="#363031"/>
<path d="M245.032 67.2268C243.633 68.3059 242.125 68.7375 240.833 68.5217C239.434 68.3059 238.357 67.6584 237.388 66.3635C236.419 65.0686 236.096 63.7738 236.419 62.3709C236.742 60.9681 237.604 59.7812 239.003 58.7021L242.448 56.2202C243.848 55.1411 245.355 54.7095 246.647 54.9253C248.047 55.0332 249.231 55.7886 250.092 57.0835C250.953 58.3784 251.276 59.6732 251.061 61.076C250.738 62.4789 249.877 63.6658 248.477 64.7449L245.032 67.2268ZM246.862 62.1551C247.616 61.6156 248.154 60.9681 248.37 60.3207C248.585 59.6732 248.477 59.1337 248.154 58.5942C247.724 58.0546 247.185 57.7309 246.539 57.8388C245.893 57.8388 245.14 58.1625 244.386 58.7021L240.51 61.5077C239.649 62.0472 239.219 62.6947 239.003 63.3421C238.788 63.9896 238.896 64.5291 239.326 65.0686C239.757 65.6082 240.188 65.824 240.941 65.824C241.587 65.824 242.341 65.5003 243.094 64.9607L246.862 62.1551Z" fill="#363031"/>
<path d="M251.492 78.1255C249.984 78.9887 248.477 79.3125 247.078 78.9887C245.678 78.665 244.601 77.9097 243.848 76.5069C243.094 75.104 242.879 73.8091 243.31 72.5142C243.74 71.2194 244.709 70.0324 246.216 69.1691L249.877 67.0109C251.384 66.1477 252.891 65.8239 254.291 66.1477C255.69 66.4714 256.767 67.2268 257.521 68.6296C258.274 69.9245 258.49 71.3273 258.059 72.6222C257.628 73.9171 256.659 75.104 255.152 75.9673L251.492 78.1255ZM253.86 73.2696C254.721 72.7301 255.26 72.1905 255.583 71.651C255.906 71.0035 255.798 70.464 255.475 69.9245C255.152 69.3849 254.614 69.0612 253.968 68.9533C253.322 68.9533 252.568 69.1691 251.707 69.6007L247.508 72.0826C246.647 72.6222 246.109 73.1617 245.786 73.7012C245.463 74.2408 245.57 74.8882 245.893 75.4278C246.216 75.9673 246.755 76.291 247.401 76.3989C248.047 76.3989 248.8 76.1831 249.661 75.7515L253.86 73.2696Z" fill="#363031"/>
<path d="M266.026 92.693L264.411 88.5925L252.461 93.4484L251.277 90.6428L263.227 85.7869L261.612 81.7943L263.765 80.931L268.179 91.8297L266.026 92.693Z" fill="#363031"/>
<path d="M264.949 99.2754L265.595 101.865C266.026 103.592 265.918 104.995 265.38 106.289C264.734 107.584 263.765 108.34 262.365 108.771C260.966 109.203 259.674 108.987 258.49 108.232C257.306 107.476 256.552 106.182 256.014 104.563L254.506 99.0596L269.256 95.067L270.009 98.0884L264.949 99.2754ZM262.688 99.815L257.628 101.218L258.274 103.808C258.49 104.671 258.92 105.21 259.566 105.534C260.212 105.858 260.858 105.966 261.612 105.75C262.258 105.534 262.796 105.21 263.227 104.563C263.55 104.023 263.657 103.268 263.442 102.405L262.688 99.815ZM258.705 114.275L257.951 111.253L272.701 107.261L273.454 110.282L258.705 114.275Z" fill="#363031"/>
<path d="M265.488 127.439C263.765 127.763 262.473 127.439 261.397 126.468C260.32 125.605 259.674 124.202 259.459 122.476C259.243 120.641 259.566 119.13 260.643 117.836C261.612 116.541 263.119 115.785 264.949 115.57L267.964 115.138C269.794 114.922 271.409 115.246 272.701 116.217C273.993 117.188 274.854 118.483 275.069 120.317C275.285 122.152 275.069 123.663 274.316 124.85C273.562 126.037 272.378 126.684 270.655 126.9H270.548L270.117 123.986C271.086 123.878 271.732 123.555 272.162 123.015C272.593 122.476 272.701 121.72 272.593 120.749C272.485 119.886 272.055 119.13 271.194 118.807C270.44 118.375 269.363 118.267 268.287 118.375L265.272 118.807C264.088 118.915 263.227 119.346 262.473 119.994C261.827 120.641 261.504 121.397 261.72 122.368C261.827 123.231 262.15 123.878 262.688 124.31C263.227 124.742 263.98 124.85 264.949 124.742L265.488 127.439Z" fill="#363031"/>
<path d="M260.643 133.267L260.428 130.245L263.119 130.137L263.335 133.159L260.643 133.267Z" fill="#363031"/>
<path d="M266.995 146.215L267.102 145.136L260.75 144.705L260.966 141.683L276.253 142.762L276.038 145.784L269.794 145.352L269.686 146.215L275.607 150.856L275.392 154.632L268.61 148.805L259.997 153.985L260.212 150.1L266.995 146.215Z" fill="#363031"/>
<path d="M267.21 161.754L266.241 161.862V161.97L273.239 166.502L272.701 169.739L261.504 162.078C260.643 161.431 259.997 160.783 259.566 160.136C259.136 159.38 259.028 158.517 259.243 157.438C259.351 157.006 259.459 156.683 259.566 156.359C259.674 156.035 259.889 155.711 260.105 155.28L262.15 156.035C262.043 156.359 261.935 156.575 261.827 156.791C261.72 157.006 261.72 157.222 261.612 157.546C261.504 158.085 261.504 158.517 261.72 158.949C261.935 159.38 262.258 159.596 262.688 159.812L263.227 160.136L275.069 156.791L274.531 160.028L267.21 161.754Z" fill="#363031"/>
<path d="M266.887 181.501L268.825 174.811L265.918 173.948L265.164 176.43C264.626 178.156 263.873 179.343 262.688 180.099C261.504 180.854 260.212 180.962 258.813 180.53C257.413 180.099 256.444 179.235 255.798 178.048C255.152 176.753 255.152 175.351 255.69 173.624L257.305 168.121L271.947 172.437L269.148 182.041L266.887 181.501ZM263.657 173.3L258.705 171.79L257.951 174.272C257.736 175.135 257.736 175.782 258.167 176.43C258.49 176.969 259.028 177.401 259.782 177.617C260.427 177.833 261.073 177.725 261.719 177.509C262.365 177.185 262.796 176.646 263.011 175.782L263.657 173.3Z" fill="#363031"/>
<path d="M252.138 183.983L253.214 181.07L255.69 182.041L254.614 184.955L252.138 183.983Z" fill="#363031"/>
<path d="M248.693 200.385L256.552 209.45L254.614 212.903L241.264 205.457L242.771 202.759L251.922 207.831L244.602 199.414L245.571 197.58L256.552 199.414V199.306L247.616 194.235L249.123 191.537L262.473 198.983L260.535 202.543L248.693 200.385Z" fill="#363031"/>
<path d="M240.08 218.514L243.418 213.874L239.865 211.284L235.881 216.787L233.944 215.385L239.757 207.399L252.138 216.464L246.324 224.341L244.387 222.938L248.37 217.543L245.248 215.277L241.91 219.917L240.08 218.514Z" fill="#363031"/>
<path d="M235.343 233.513L238.25 230.276L228.561 221.643L230.606 219.377L240.295 228.01L243.202 224.773L244.925 226.391L237.066 235.132L235.343 233.513Z" fill="#363031"/>
<path d="M226.084 232.002L222.316 227.902L224.577 225.852L234.912 237.182L230.606 241.175C229.314 242.362 228.022 243.009 226.623 243.009C225.223 243.009 224.146 242.47 223.07 241.39C222.101 240.311 221.67 239.124 221.778 237.722C221.886 236.427 222.639 235.132 223.931 233.945L226.084 232.002ZM227.699 233.729L225.654 235.563C225.008 236.103 224.685 236.75 224.685 237.398C224.685 238.045 224.9 238.585 225.438 239.124C225.977 239.664 226.515 239.988 227.161 239.988C227.807 239.988 228.453 239.772 229.099 239.232L231.144 237.398L227.699 233.729Z" fill="#363031"/>
<path d="M208.321 247.109C207.244 245.599 206.813 243.98 207.029 242.254C207.244 240.527 208.213 239.124 209.72 238.045C211.227 236.966 212.842 236.534 214.565 236.858C216.287 237.182 217.579 238.045 218.764 239.556L220.378 241.822C221.455 243.333 221.886 244.951 221.67 246.678C221.455 248.404 220.594 249.807 218.979 250.886C217.472 251.965 215.857 252.397 214.134 252.073C212.412 251.75 211.012 250.886 209.935 249.376L208.321 247.109ZM212.412 247.649C213.058 248.62 213.919 249.268 214.888 249.483C215.857 249.807 216.718 249.591 217.579 248.944C218.441 248.296 218.871 247.541 218.871 246.57C218.871 245.599 218.548 244.628 217.902 243.656L216.287 241.39C215.534 240.419 214.78 239.772 213.811 239.448C212.842 239.124 211.981 239.34 211.12 239.988C210.258 240.635 209.828 241.39 209.828 242.362C209.828 243.333 210.151 244.304 210.797 245.275L212.412 247.649Z" fill="#363031"/>
<path d="M202.722 243.117L210.258 256.498L205.844 258.979C204.229 259.843 202.83 260.274 201.646 260.166C200.461 260.059 199.492 259.411 198.739 258.116C198.416 257.469 198.2 256.821 198.308 256.174C198.308 255.526 198.631 254.879 199.062 254.339C198.093 254.663 197.339 254.663 196.586 254.339C195.832 254.016 195.294 253.476 194.863 252.721C194.109 251.426 194.002 250.239 194.54 249.052C194.971 247.865 196.047 246.894 197.555 246.03L202.722 243.117ZM203.368 250.563L201.215 246.678L198.739 248.081C197.985 248.512 197.555 248.944 197.339 249.484C197.124 250.023 197.232 250.563 197.555 251.21C197.877 251.858 198.416 252.289 198.954 252.397C199.492 252.505 200.138 252.397 200.892 251.965L203.368 250.563ZM204.445 252.397L202.614 253.368C201.861 253.8 201.43 254.231 201.215 254.771C201 255.311 201 255.85 201.323 256.39C201.646 257.037 202.076 257.361 202.722 257.469C203.26 257.577 203.906 257.361 204.66 256.929L206.383 255.958L204.445 252.397Z" fill="#363031"/>
<path d="M174.516 256.174L177.422 255.095L181.836 267.288L187.65 265.13L183.236 252.937L186.143 251.857L191.418 266.209L179.791 270.526L174.516 256.174Z" fill="#363031"/>
<path d="M170.425 262.972L169.133 257.577L172.147 256.821L175.7 271.713L169.994 273.115C168.271 273.547 166.872 273.439 165.688 272.792C164.503 272.144 163.75 271.173 163.427 269.662C163.104 268.26 163.319 266.965 164.073 265.886C164.826 264.806 166.118 264.051 167.841 263.62L170.425 262.972ZM170.963 265.238L168.271 265.886C167.41 266.101 166.872 266.425 166.549 267.073C166.226 267.612 166.118 268.26 166.334 269.015C166.549 269.77 166.872 270.31 167.41 270.634C167.949 270.957 168.594 271.065 169.456 270.849L172.147 270.202L170.963 265.238Z" fill="#363031"/>
<path d="M147.493 267.612C147.278 265.778 147.708 264.159 148.677 262.756C149.754 261.353 151.153 260.598 153.091 260.382C154.922 260.166 156.536 260.598 157.936 261.677C159.228 262.756 159.982 264.267 160.304 266.101L160.627 268.799C160.843 270.633 160.412 272.252 159.443 273.655C158.474 275.058 156.967 275.813 155.137 276.029C153.199 276.245 151.692 275.813 150.292 274.734C149 273.655 148.139 272.144 147.924 270.31L147.493 267.612ZM150.938 269.986C151.046 271.173 151.476 272.144 152.23 272.792C152.876 273.439 153.737 273.763 154.814 273.655C155.89 273.547 156.644 273.007 157.075 272.252C157.505 271.389 157.721 270.418 157.613 269.231L157.29 266.425C157.182 265.238 156.752 264.267 156.106 263.619C155.46 262.972 154.599 262.648 153.522 262.756C152.445 262.864 151.692 263.404 151.261 264.159C150.723 265.022 150.615 265.993 150.723 267.18L150.938 269.986Z" fill="#363031"/>
<path d="M130.806 257.9H133.928L134.036 261.677L143.294 261.569L143.187 257.792H146.201L146.309 263.943H145.448C144.694 263.943 144.048 264.483 143.725 265.562C143.402 266.641 143.187 268.367 143.079 270.633L142.864 276.892L132.959 277L132.744 264.051H130.914L130.806 257.9ZM139.957 270.525C139.957 269.015 140.172 267.72 140.388 266.641C140.603 265.562 140.926 264.591 141.357 263.835L135.758 263.943L135.974 274.518L139.849 274.41L139.957 270.525Z" fill="#363031"/>
<path d="M123.7 269.231L123.485 268.26H123.377L119.286 275.597L116.057 275.274L122.947 263.512C123.485 262.54 124.131 261.893 124.777 261.353C125.423 260.922 126.392 260.706 127.469 260.814C127.899 260.814 128.222 260.922 128.545 261.03C128.868 261.138 129.191 261.246 129.622 261.461L128.976 263.619C128.653 263.512 128.437 263.404 128.114 263.296C127.899 263.188 127.684 263.188 127.361 263.188C126.823 263.08 126.284 263.188 125.961 263.404C125.638 263.619 125.315 263.943 125.1 264.483L124.777 265.022L128.868 276.676L125.531 276.353L123.7 269.231Z" fill="#363031"/>
<path d="M111.104 265.022L112.181 265.238L113.581 258.979L116.595 259.627L113.258 274.626L110.243 273.979L111.643 267.828L110.781 267.612L105.291 272.792L101.63 271.928L108.305 266.101L104.537 256.821L108.305 257.685L111.104 265.022Z" fill="#363031"/>
<path d="M98.508 271.281L95.6012 270.202L99.9076 258.008L93.9864 255.958L89.68 268.152L86.7732 267.073L91.0796 254.879L89.1417 254.231L91.1872 248.404L94.094 249.484L92.8021 253.044L103.568 256.821L98.508 271.281Z" fill="#363031"/>
<path d="M73.316 260.706L70.6245 259.303L77.5147 245.599L80.2062 247.002L75.5768 256.174L85.6968 249.807L88.3883 251.21L81.4981 264.914L78.8066 263.511L83.436 254.339L73.316 260.706Z" fill="#363031"/>
<path d="M59.2127 252.073L56.6289 250.347L65.134 237.614L67.7178 239.34L62.0119 247.865L72.7778 242.793L75.3616 244.52L66.8565 257.253L64.2727 255.526L69.9786 247.002L59.2127 252.073Z" fill="#363031"/>
<path d="M58.9972 232.758L48.6619 244.088L45.0015 240.635C43.7095 239.448 42.8483 238.153 42.633 236.966C42.4176 235.779 42.7406 234.7 43.6019 233.621C44.0325 233.081 44.6785 232.758 45.3244 232.65C45.9704 232.542 46.6163 232.542 47.37 232.758C46.8317 232.002 46.5087 231.139 46.6163 230.384C46.724 229.628 47.047 228.873 47.5853 228.226C48.5542 227.146 49.6308 226.607 50.9227 226.715C52.2146 226.823 53.3989 227.47 54.6908 228.657L58.9972 232.758ZM50.7074 237.182L49.2002 235.779C48.5542 235.24 48.0159 234.916 47.4776 234.916C46.9393 234.916 46.401 235.024 45.9704 235.563C45.5398 236.103 45.3244 236.642 45.4321 237.182C45.5398 237.721 45.8627 238.261 46.5087 238.908L47.9083 240.203L50.7074 237.182ZM52.2146 235.671L55.2291 232.434L53.1836 230.492C52.5376 229.952 51.9993 229.628 51.461 229.628C50.9227 229.628 50.3844 229.844 49.9538 230.384C49.4155 230.923 49.2002 231.463 49.3078 232.11C49.3078 232.65 49.6308 233.297 50.2768 233.837L52.2146 235.671Z" fill="#363031"/>
<path d="M29.2833 220.025L33.5897 225.42L43.602 217.219L45.5399 219.593L33.6974 229.305L27.4531 221.535L29.2833 220.025Z" fill="#363031"/>
<path d="M26.6996 204.054C28.3145 202.975 29.9294 202.651 31.5443 202.975C33.2668 203.299 34.5587 204.27 35.6353 205.889C36.7119 207.507 37.0349 209.126 36.6043 210.744C36.1736 212.363 35.2047 213.766 33.6975 214.737L31.4366 216.248C29.8217 217.327 28.2068 217.65 26.592 217.327C24.8694 217.003 23.5775 216.032 22.5009 214.521C21.4243 212.903 21.1013 211.284 21.532 209.665C21.8549 207.939 22.8239 206.644 24.4388 205.565L26.6996 204.054ZM26.0537 208.155C25.0847 208.802 24.4388 209.557 24.1158 210.529C23.7928 211.5 23.9005 212.363 24.5464 213.226C25.0847 214.09 25.8383 214.521 26.8073 214.629C27.7762 214.737 28.7451 214.413 29.7141 213.766L32.0826 212.255C33.0515 211.608 33.8051 210.852 34.1281 209.881C34.4511 209.018 34.3434 208.047 33.6975 207.183C33.1592 206.32 32.2979 205.781 31.4366 205.781C30.4677 205.673 29.4987 205.996 28.4222 206.644L26.0537 208.155Z" fill="#363031"/>
<path d="M28.0991 184.739L29.4986 187.436L26.1612 189.163L30.2523 197.472L33.5897 195.745L34.9893 198.443L29.4986 201.141L29.068 200.385C28.745 199.63 27.9914 199.414 26.9148 199.522C25.8382 199.738 24.2233 200.277 22.0702 201.141L16.3642 203.623L11.9502 194.774L23.5774 188.947L22.7161 187.328L28.0991 184.739ZM20.6706 198.551C22.0702 197.903 23.2544 197.472 24.331 197.256C25.4076 196.932 26.3765 196.824 27.3455 196.932L24.8693 191.861L15.3953 196.609L17.1178 200.062L20.6706 198.551Z" fill="#363031"/>
<path d="M23.3619 182.365L24.4385 185.278L21.9623 186.249L20.8857 183.336L23.3619 182.365Z" fill="#363031"/>
</svg>
