<svg width="146" height="60" viewBox="0 0 146 60" fill="none" xmlns="http://www.w3.org/2000/svg">
<path d="M21.1787 22.6902V27.4229H1.44702V1.93918H20.7054V6.67186H7.30827V12.2055H19.14V16.7925H7.30827V22.6902H21.1787Z" fill="#009645"/>
<path d="M37.9959 27.8597C35.399 27.8597 33.0448 27.3015 30.9333 26.1851C28.846 25.0444 27.1957 23.479 25.9822 21.4888C24.7929 19.4744 24.1983 17.2051 24.1983 14.681C24.1983 12.1569 24.7929 9.89979 25.9822 7.90964C27.1957 5.89522 28.846 4.32979 30.9333 3.21337C33.0448 2.07267 35.4111 1.50232 38.0323 1.50232C40.2409 1.50232 42.231 1.89064 44.0028 2.66729C45.7988 3.44393 47.3035 4.56036 48.517 6.01657L44.7309 9.51147C43.0077 7.52132 40.8719 6.52624 38.3235 6.52624C36.746 6.52624 35.3383 6.87816 34.1005 7.582C32.8628 8.26156 31.8919 9.22023 31.1881 10.458C30.5085 11.6958 30.1688 13.1035 30.1688 14.681C30.1688 16.2586 30.5085 17.6662 31.1881 18.904C31.8919 20.1418 32.8628 21.1126 34.1005 21.8164C35.3383 22.496 36.746 22.8358 38.3235 22.8358C40.8719 22.8358 43.0077 21.8286 44.7309 19.8142L48.517 23.3091C47.3035 24.7895 45.7988 25.9181 44.0028 26.6947C42.2068 27.4714 40.2045 27.8597 37.9959 27.8597Z" fill="#009645"/>
<path d="M64.3078 27.8597C61.6623 27.8597 59.2717 27.2894 57.1359 26.1487C55.0244 25.008 53.3619 23.4425 52.1484 21.4524C50.9592 19.438 50.3646 17.1808 50.3646 14.681C50.3646 12.1812 50.9592 9.9362 52.1484 7.94605C53.3619 5.93162 55.0244 4.35406 57.1359 3.21337C59.2717 2.07267 61.6623 1.50232 64.3078 1.50232C66.9532 1.50232 69.3317 2.07267 71.4432 3.21337C73.5547 4.35406 75.2172 5.93162 76.4307 7.94605C77.6442 9.9362 78.251 12.1812 78.251 14.681C78.251 17.1808 77.6442 19.438 76.4307 21.4524C75.2172 23.4425 73.5547 25.008 71.4432 26.1487C69.3317 27.2894 66.9532 27.8597 64.3078 27.8597ZM64.3078 22.8358C65.8125 22.8358 67.1717 22.496 68.3852 21.8164C69.5987 21.1126 70.5452 20.1418 71.2248 18.904C71.9286 17.6662 72.2805 16.2586 72.2805 14.681C72.2805 13.1035 71.9286 11.6958 71.2248 10.458C70.5452 9.22023 69.5987 8.26156 68.3852 7.582C67.1717 6.87816 65.8125 6.52624 64.3078 6.52624C62.803 6.52624 61.4439 6.87816 60.2304 7.582C59.0169 8.26156 58.0582 9.22023 57.3544 10.458C56.6748 11.6958 56.335 13.1035 56.335 14.681C56.335 16.2586 56.6748 17.6662 57.3544 18.904C58.0582 20.1418 59.0169 21.1126 60.2304 21.8164C61.4439 22.496 62.803 22.8358 64.3078 22.8358Z" fill="#009645"/>
<path d="M8.82592 38.2493H0.671143V33.4438H22.8783V38.2493H14.7236V58.9275H8.82592V38.2493Z" fill="#363031"/>
<path d="M36.2172 59.3644C33.5717 59.3644 31.1811 58.794 29.0453 57.6533C26.9338 56.5126 25.2713 54.9472 24.0578 52.957C22.8686 50.9426 22.274 48.6855 22.274 46.1857C22.274 43.6858 22.8686 41.4408 24.0578 39.4507C25.2713 37.4363 26.9338 35.8587 29.0453 34.718C31.1811 33.5773 33.5717 33.007 36.2172 33.007C38.8626 33.007 41.2411 33.5773 43.3526 34.718C45.4641 35.8587 47.1266 37.4363 48.3401 39.4507C49.5536 41.4408 50.1604 43.6858 50.1604 46.1857C50.1604 48.6855 49.5536 50.9426 48.3401 52.957C47.1266 54.9472 45.4641 56.5126 43.3526 57.6533C41.2411 58.794 38.8626 59.3644 36.2172 59.3644ZM36.2172 54.3404C37.7219 54.3404 39.081 54.0006 40.2946 53.3211C41.5081 52.6173 42.4546 51.6464 43.1342 50.4087C43.838 49.1709 44.1899 47.7632 44.1899 46.1857C44.1899 44.6081 43.838 43.2004 43.1342 41.9626C42.4546 40.7249 41.5081 39.7662 40.2946 39.0866C39.081 38.3828 37.7219 38.0309 36.2172 38.0309C34.7124 38.0309 33.3533 38.3828 32.1398 39.0866C30.9263 39.7662 29.9676 40.7249 29.2638 41.9626C28.5842 43.2004 28.2444 44.6081 28.2444 46.1857C28.2444 47.7632 28.5842 49.1709 29.2638 50.4087C29.9676 51.6464 30.9263 52.6173 32.1398 53.3211C33.3533 54.0006 34.7124 54.3404 36.2172 54.3404Z" fill="#363031"/>
<path d="M76.1446 33.4438V58.9275H71.3027L58.5973 43.4553V58.9275H52.7725V33.4438H57.6508L70.3198 48.916V33.4438H76.1446Z" fill="#363031"/>
<rect x="85.9377" y="0.819092" width="26.6038" height="26.6038" fill="#009645"/>
<rect x="118.843" y="0.819092" width="26.6038" height="26.6038" fill="#009645"/>
<rect x="85.9377" y="32.3236" width="26.6038" height="26.6038" fill="#363031"/>
<rect x="118.843" y="32.3236" width="26.6038" height="26.6038" fill="#363031"/>
</svg>
