<svg width="248" height="100" viewBox="0 0 248 100" fill="none" xmlns="http://www.w3.org/2000/svg">
<path d="M35.0282 37.3577V45.4415H1.32495V1.91329H34.2198V9.9971H11.3364V19.4489H31.5459V27.284H11.3364V37.3577H35.0282Z" fill="white"/>
<path d="M63.7534 46.1877C59.3177 46.1877 55.2965 45.2342 51.6899 43.3272C48.1247 41.3788 45.3057 38.705 43.233 35.3056C41.2017 31.8648 40.186 27.9888 40.186 23.6774C40.186 19.366 41.2017 15.5107 43.233 12.1113C45.3057 8.67053 48.1247 5.99665 51.6899 4.0897C55.2965 2.1413 59.3384 1.1671 63.8156 1.1671C67.588 1.1671 70.9874 1.83038 74.0136 3.15696C77.0813 4.48353 79.6515 6.39048 81.7243 8.87781L75.2573 14.8474C72.3139 11.448 68.6659 9.74837 64.313 9.74837C61.6184 9.74837 59.214 10.3495 57.0998 11.5517C54.9856 12.7124 53.3274 14.3499 52.1251 16.4641C50.9644 18.5784 50.384 20.9828 50.384 23.6774C50.384 26.372 50.9644 28.7764 52.1251 30.8906C53.3274 33.0049 54.9856 34.6631 57.0998 35.8653C59.214 37.026 61.6184 37.6064 64.313 37.6064C68.6659 37.6064 72.3139 35.886 75.2573 32.4452L81.7243 38.4148C79.6515 40.9436 77.0813 42.8712 74.0136 44.1978C70.9459 45.5244 67.5258 46.1877 63.7534 46.1877Z" fill="white"/>
<path d="M108.696 46.1877C104.178 46.1877 100.094 45.2135 96.4462 43.2651C92.8395 41.3167 89.9998 38.6428 87.9271 35.2434C85.8958 31.8026 84.8801 27.9473 84.8801 23.6774C84.8801 19.4075 85.8958 15.5729 87.9271 12.1735C89.9998 8.73271 92.8395 6.03811 96.4462 4.0897C100.094 2.1413 104.178 1.1671 108.696 1.1671C113.215 1.1671 117.278 2.1413 120.884 4.0897C124.491 6.03811 127.33 8.73271 129.403 12.1735C131.476 15.5729 132.512 19.4075 132.512 23.6774C132.512 27.9473 131.476 31.8026 129.403 35.2434C127.33 38.6428 124.491 41.3167 120.884 43.2651C117.278 45.2135 113.215 46.1877 108.696 46.1877ZM108.696 37.6064C111.266 37.6064 113.588 37.026 115.661 35.8653C117.734 34.6631 119.35 33.0049 120.511 30.8906C121.713 28.7764 122.314 26.372 122.314 23.6774C122.314 20.9828 121.713 18.5784 120.511 16.4641C119.35 14.3499 117.734 12.7124 115.661 11.5517C113.588 10.3495 111.266 9.74837 108.696 9.74837C106.126 9.74837 103.804 10.3495 101.732 11.5517C99.659 12.7124 98.0215 14.3499 96.8193 16.4641C95.6585 18.5784 95.0781 20.9828 95.0781 23.6774C95.0781 26.372 95.6585 28.7764 96.8193 30.8906C98.0215 33.0049 99.659 34.6631 101.732 35.8653C103.804 37.026 106.126 37.6064 108.696 37.6064Z" fill="white"/>
<path d="M13.929 63.9338H0V55.7256H37.9317V63.9338H24.0027V99.2538H13.929V63.9338Z" fill="white"/>
<path d="M60.7155 100C56.1969 100 52.1135 99.0258 48.4654 97.0774C44.8588 95.129 42.0191 92.4551 39.9463 89.0558C37.915 85.615 36.8994 81.7596 36.8994 77.4897C36.8994 73.2198 37.915 69.3852 39.9463 65.9858C42.0191 62.545 44.8588 59.8504 48.4654 57.902C52.1135 55.9536 56.1969 54.9794 60.7155 54.9794C65.2341 54.9794 69.2968 55.9536 72.9034 57.902C76.51 59.8504 79.3497 62.545 81.4225 65.9858C83.4952 69.3852 84.5316 73.2198 84.5316 77.4897C84.5316 81.7596 83.4952 85.615 81.4225 89.0558C79.3497 92.4551 76.51 95.129 72.9034 97.0774C69.2968 99.0258 65.2341 100 60.7155 100ZM60.7155 91.4187C63.2857 91.4187 65.6072 90.8384 67.68 89.6776C69.7528 88.4754 71.3695 86.8172 72.5303 84.703C73.7325 82.5887 74.3336 80.1843 74.3336 77.4897C74.3336 74.7951 73.7325 72.3907 72.5303 70.2765C71.3695 68.1623 69.7528 66.5248 67.68 65.364C65.6072 64.1618 63.2857 63.5607 60.7155 63.5607C58.1453 63.5607 55.8238 64.1618 53.751 65.364C51.6782 66.5248 50.0407 68.1623 48.8385 70.2765C47.6778 72.3907 47.0974 74.7951 47.0974 77.4897C47.0974 80.1843 47.6778 82.5887 48.8385 84.703C50.0407 86.8172 51.6782 88.4754 53.751 89.6776C55.8238 90.8384 58.1453 91.4187 60.7155 91.4187Z" fill="white"/>
<path d="M128.915 55.7256V99.2538H120.644L98.9426 72.826V99.2538H88.9933V55.7256H97.3258L118.966 82.1535V55.7256H128.915Z" fill="white"/>
<rect x="145.642" width="45.4415" height="45.4415" fill="white"/>
<rect x="201.846" width="45.4415" height="45.4415" fill="white"/>
<rect x="145.642" y="53.8123" width="45.4415" height="45.4415" fill="white"/>
<rect x="201.846" y="53.8123" width="45.4415" height="45.4415" fill="white"/>
</svg>
