<svg width="45" height="44" viewBox="0 0 45 44" fill="none" xmlns="http://www.w3.org/2000/svg">
<g clip-path="url(#clip0)">
<path d="M15.963 3.29541C8.99999 3.29541 3.37036 8.79994 3.37036 15.6082C3.37036 17.8534 3.99999 19.9538 5.03703 21.7645L9.59258 19.1934C8.96295 18.1431 8.59258 16.9119 8.59258 15.6082C8.59258 11.6246 11.8889 8.4378 15.9259 8.4378C18.6296 8.4378 21.037 9.88636 22.2963 12.023L26.8518 9.45179C24.7037 5.75796 20.6296 3.29541 15.963 3.29541Z" fill="#009645"/>
<path d="M26.8888 9.45166L22.3333 12.0229C22.9629 13.0731 23.3333 14.3043 23.3333 15.608C23.3333 16.9117 22.9629 18.143 22.3333 19.1932L26.8888 21.7644C27.9629 19.9537 28.5555 17.8533 28.5555 15.608C28.5925 13.3628 27.9629 11.2624 26.8888 9.45166Z" fill="#009645"/>
<path d="M16.8148 4.88867H15.1111V6.80801H16.8148V4.88867Z" fill="#363031"/>
<path d="M11.2363 5.89967L9.76074 6.73242L10.742 8.39476L12.2176 7.56201L11.2363 5.89967Z" fill="#363031"/>
<path d="M6.90564 9.5367L6.05396 10.9795L7.75408 11.939L8.60576 10.4962L6.90564 9.5367Z" fill="#363031"/>
<path d="M6.96296 14.7754H5V16.4412H6.96296V14.7754Z" fill="#363031"/>
<path d="M26.9259 14.7754H24.9629V16.4412H26.9259V14.7754Z" fill="#363031"/>
<path d="M25.0422 9.55351L23.3423 10.5132L24.1941 11.9558L25.8941 10.9961L25.0422 9.55351Z" fill="#363031"/>
<path d="M20.7254 5.907L19.7441 7.56934L21.2197 8.40209L22.201 6.73975L20.7254 5.907Z" fill="#363031"/>
<path d="M15.963 18.5413C14.3333 18.5413 13 17.2376 13 15.6442C13 14.0508 14.3333 12.7471 15.963 12.7471C17.5926 12.7471 18.9259 14.0508 18.9259 15.6442C18.963 17.2376 17.6296 18.5413 15.963 18.5413ZM15.963 14.3767C15.2593 14.3767 14.6667 14.9199 14.6667 15.6442C14.6667 16.3685 15.2593 16.9117 15.963 16.9117C16.6667 16.9117 17.2593 16.3685 17.2593 15.6442C17.2593 14.9199 16.6667 14.3767 15.963 14.3767Z" fill="#363031"/>
<path d="M20.0977 12.3142L17.3707 13.8521L18.2219 15.295L20.9488 13.7571L20.0977 12.3142Z" fill="#363031"/>
<path d="M15.963 31.2527C11.7037 31.2527 7.66667 29.623 4.66667 26.6897C1.66667 23.7202 0 19.8091 0 15.6082C0 11.4436 1.66667 7.4963 4.66667 4.56296C7.7037 1.62963 11.7037 0 15.963 0C20.2222 0 24.2593 1.62963 27.2593 4.56296C30.2593 7.4963 31.9259 11.4436 31.9259 15.6082C31.9259 19.7728 30.2593 23.7202 27.2593 26.6535C24.2593 29.623 20.2222 31.2527 15.963 31.2527ZM15.963 1.66584C12.1481 1.66584 8.55556 3.1144 5.85185 5.75802C3.14815 8.40165 1.66667 11.9144 1.66667 15.6444C1.66667 19.3745 3.14815 22.8872 5.85185 25.5309C8.55556 28.1745 12.1481 29.623 15.963 29.623C19.7778 29.623 23.3704 28.1745 26.0741 25.5309C28.7778 22.8872 30.2593 19.3745 30.2593 15.6444C30.2593 11.9144 28.7778 8.40165 26.0741 5.75802C23.3704 3.1144 19.7778 1.66584 15.963 1.66584Z" fill="#363031"/>
<path d="M27.2557 25.4907L26.0507 26.6685L29.4024 29.9471L30.6074 28.7693L27.2557 25.4907Z" fill="#363031"/>
<path d="M32.5034 26.9588L27.5792 31.7729L40.0975 44.0148L45.0217 39.2007L32.5034 26.9588Z" fill="#009645"/>
<path d="M34.344 28.7569L29.4198 33.5703L30.6243 34.7484L35.5485 29.935L34.344 28.7569Z" fill="#363031"/>
<path d="M41.9692 36.2259L37.0457 41.04L38.2503 42.218L43.1739 37.4039L41.9692 36.2259Z" fill="#363031"/>
</g>
<defs>
<clipPath id="clip0">
<rect width="45" height="44" fill="white"/>
</clipPath>
</defs>
</svg>
