<svg width="41" height="39" viewBox="0 0 41 39" fill="none" xmlns="http://www.w3.org/2000/svg">
<path d="M41 38.9998H0V5.11572H41V38.9998ZM1.64429 37.2944H39.3557V6.78397H1.64429V37.2944Z" fill="#363031"/>
<path d="M21.3042 22.1323H19.6599V25.3576H21.3042V22.1323Z" fill="#363031"/>
<path d="M16.9433 28.1753H13.1543V29.8806H16.9433V28.1753Z" fill="#363031"/>
<path d="M27.8099 28.1753H24.0209V29.8806H27.8099V28.1753Z" fill="#363031"/>
<path d="M3.43152 8.6748V35.441H37.5327V8.6748H3.43152ZM13.1543 32.6976H6.07668V25.3573H13.1543V32.6976ZM13.1543 11.3811H27.8456V22.132H13.1543V11.3811ZM24.0209 32.6976H16.9433V25.3573H24.0209V32.6976ZM34.9232 32.6976H27.8456V25.3573H34.9232V32.6976Z" fill="#009645"/>
<path d="M33.0288 28.1748H29.7402V29.8801H33.0288V28.1748Z" fill="#363031"/>
<path d="M11.2598 28.1748H7.97119V29.8801H11.2598V28.1748Z" fill="#363031"/>
<path d="M22.1263 28.1748H18.8378V29.8801H22.1263V28.1748Z" fill="#242D3C"/>
<path d="M24.021 17.6094H16.9434V19.3147H24.021V17.6094Z" fill="#363031"/>
<path d="M24.021 14.1987H16.9434V15.9041H24.021V14.1987Z" fill="#363031"/>
<path d="M41 6.78422H0V0H41V6.78422ZM1.64429 5.11597H39.3557V1.70532H1.64429V5.11597Z" fill="#363031"/>
<path d="M5.5763 2.55811H3.93201V4.26343H5.5763V2.55811Z" fill="#363031"/>
<path d="M8.86487 2.55811H7.22058V4.26343H8.86487V2.55811Z" fill="#363031"/>
<path d="M12.1534 2.55811H10.5092V4.26343H12.1534V2.55811Z" fill="#363031"/>
</svg>
