<svg width="41" height="42" viewBox="0 0 41 42" fill="none" xmlns="http://www.w3.org/2000/svg">
<path d="M19.7315 9.74023C14.0122 10.143 9.5083 15.0131 9.5083 20.9817C9.5083 23.8013 10.5449 26.4011 12.225 28.3784L19.7672 20.6522V9.74023H19.7315Z" fill="#009645"/>
<path d="M20.8396 21.7876L13.2974 29.4772C15.2276 31.1982 17.7655 32.2235 20.5179 32.2235C26.3444 32.2235 31.0986 27.6097 31.4918 21.751H20.8396V21.7876Z" fill="#363031"/>
<path d="M21.2686 9.74023V20.1762H31.456C31.0985 14.6103 26.7376 10.143 21.2686 9.74023ZM22.9128 11.7176C26.1299 12.5964 28.6679 15.1962 29.5615 18.5284H22.9128V11.7176Z" fill="#363031"/>
<path d="M22.6626 42H18.3374L17.4438 37.4961C16.6574 37.3496 15.8352 37.1299 15.0846 36.837L12.1177 40.279L8.36443 38.082L9.79425 33.7245C9.18657 33.1752 8.5789 32.5894 8.04272 31.9303L3.78902 33.3949L1.64429 29.5868L5.00436 26.5475C4.7184 25.7419 4.50392 24.9364 4.36094 24.1308L0 23.2153V18.7847L4.39669 17.8692C4.53967 17.0636 4.75414 16.2581 5.0401 15.4525L1.68003 12.4133L3.82476 8.60506L8.07847 10.0697C8.61465 9.44725 9.18657 8.82476 9.82999 8.2755L8.40018 3.91805L12.1534 1.72101L15.1203 5.16303C15.9067 4.8701 16.6931 4.65039 17.4795 4.50392L18.3374 0H22.6626L23.5562 4.50392C24.3426 4.65039 25.1648 4.8701 25.9154 5.16303L28.8823 1.72101L32.6356 3.91805L31.2058 8.2755C31.8134 8.82476 32.4211 9.41064 32.9573 10.0697L37.211 8.60506L39.3557 12.4133L35.9956 15.4525C36.2816 16.2581 36.4961 17.0636 36.6391 17.8692L41 18.7847V23.2153L36.6391 24.0942C36.4961 24.8997 36.2816 25.7419 35.9956 26.5475L39.3557 29.5868L37.211 33.3949L32.9573 31.9303C32.4211 32.5527 31.8492 33.1752 31.2058 33.7245L32.6356 38.082L28.8823 40.279L25.9154 36.837C25.129 37.1299 24.3426 37.3496 23.5562 37.4961L22.6626 42ZM19.6957 40.3156H21.34L22.1622 36.0314L22.7341 35.9582C23.8065 35.8117 24.8431 35.5187 25.8797 35.0793L26.4159 34.8596L29.2398 38.1552L30.6338 37.313L29.2755 33.1752L29.7402 32.8091C30.5981 32.1133 31.3845 31.3078 32.0636 30.4656L32.4211 30.0262L36.4603 31.4176L37.2825 29.9895L34.1011 27.0968L34.3156 26.5475C34.7088 25.4856 34.9948 24.4237 35.1735 23.3252L35.245 22.7393L39.4272 21.8971V20.1395L35.245 19.2973L35.1735 18.7114C34.9948 17.6129 34.7446 16.551 34.3156 15.4891L34.1011 14.9398L37.2825 12.0471L36.4603 10.619L32.4211 12.0105L32.0636 11.5711C31.3845 10.6922 30.5981 9.92328 29.7402 9.22755L29.2755 8.86138L30.6338 4.72363L29.204 3.88143L26.3801 7.17698L25.8439 6.95728C24.8073 6.55449 23.7707 6.26155 22.6983 6.07847L22.1622 5.96861L21.3043 1.68439H19.66L18.8021 5.96861L18.2302 6.04185C17.1578 6.18832 16.1212 6.48126 15.0846 6.92066L14.5484 7.14037L11.7245 3.84481L10.2947 4.68701L11.653 8.82476L11.1883 9.19093C10.3304 9.88666 9.57977 10.6922 8.90061 11.5344L8.54316 11.9738L4.57541 10.619L3.75327 12.0471L6.97036 14.9398L6.75589 15.4891C6.36269 16.5144 6.07672 17.6129 5.89799 18.6748L5.8265 19.2607L1.64429 20.1395V21.8239L5.8265 22.7027L5.89799 23.2886C6.04098 24.3871 6.32694 25.449 6.75589 26.5109L6.97036 27.0602L3.75327 29.9529L4.57541 31.381L8.61465 29.9895L8.9721 30.4656C9.65126 31.3444 10.4377 32.1133 11.2598 32.8091L11.7245 33.1752L10.3662 37.313L11.796 38.1552L14.6199 34.8596L15.1561 35.0793C16.1927 35.4821 17.2293 35.7751 18.3017 35.9582L18.8736 36.0314L19.6957 40.3156Z" fill="#363031"/>
</svg>
