<svg width="50" height="32" viewBox="0 0 50 32" fill="none" xmlns="http://www.w3.org/2000/svg">
<path d="M45.9302 28.3106H4.0697V2.25882C4.0697 1.65647 4.28773 1.09176 4.72377 0.677647C5.12348 0.225882 5.66854 0 6.24993 0H43.7499C44.3313 0 44.8764 0.225882 45.2761 0.677647C45.6758 1.09176 45.9302 1.65647 45.9302 2.25882V28.3106ZM5.74121 26.5788H44.2587V2.25882C44.2587 2.10824 44.2223 1.99529 44.1133 1.88235C44.0043 1.76941 43.8953 1.73176 43.7499 1.73176H6.24993C6.10459 1.73176 5.99557 1.76941 5.88656 1.88235C5.77755 1.99529 5.74121 2.10824 5.74121 2.25882V26.5788Z" fill="#363031"/>
<path d="M47.3837 31.9998H2.61628C1.92587 31.9998 1.2718 31.7363 0.763081 31.2092C0.290698 30.6821 0 30.0045 0 29.2892V26.5786H50V29.2892C50 30.0045 49.7093 30.6821 49.2369 31.2092C48.7282 31.7363 48.0741 31.9998 47.3837 31.9998ZM1.67151 28.3104V29.2892C1.67151 29.5527 1.78052 29.8163 1.96221 30.0045C2.1439 30.1927 2.39826 30.3057 2.65262 30.3057H47.4201C47.6744 30.3057 47.9288 30.1927 48.1105 30.0045C48.2921 29.8163 48.4012 29.5527 48.4012 29.2892V28.3104H1.67151Z" fill="#363031"/>
<path d="M13.2994 19.0117H8.46655V23.7552H13.2994V19.0117Z" fill="#009645"/>
<path d="M20.3488 15.3975H15.516V23.7551H20.3488V15.3975Z" fill="#009645"/>
<path d="M27.3983 11.7832H22.5654V23.755H27.3983V11.7832Z" fill="#009645"/>
<path d="M34.4476 8.16895H29.6147V23.7548H34.4476V8.16895Z" fill="#009645"/>
<path d="M41.5334 4.55518H36.7006V23.7552H41.5334V4.55518Z" fill="#009645"/>
<path d="M22.5654 7.68018H8.46655V9.41194H22.5654V7.68018Z" fill="#363031"/>
<path d="M15.7703 10.8047H8.46655V12.5365H15.7703V10.8047Z" fill="#363031"/>
<path d="M22.5654 4.55518H8.46655V6.28694H22.5654V4.55518Z" fill="#363031"/>
</svg>
