<svg width="42" height="44" viewBox="0 0 42 44" fill="none" xmlns="http://www.w3.org/2000/svg">
<g clip-path="url(#clip0)">
<path d="M18.6233 38.9831C8.33615 38.9831 0 30.25 0 19.5101C0 8.73311 8.33615 0 18.6233 0C28.9105 0 37.2466 8.73311 37.2466 19.5101H35.6149C35.6149 9.69932 27.9882 1.70946 18.6233 1.70946C9.25845 1.70946 1.63176 9.69932 1.63176 19.5101C1.63176 29.3209 9.25845 37.3108 18.6233 37.3108V38.9831Z" fill="#363031"/>
<path d="M18.6233 6.13184C11.5996 6.13184 5.85303 12.1149 5.85303 19.5102C5.85303 26.8683 11.5642 32.8886 18.6233 32.8886V28.5035C13.8699 28.5035 10.0388 24.4528 10.0388 19.4731C10.0388 14.4933 13.9054 10.4798 18.6233 10.4798C23.3767 10.4798 27.2078 14.5305 27.2078 19.4731H31.3581C31.3581 12.1149 25.6469 6.13184 18.6233 6.13184Z" fill="#009645"/>
<path d="M23.0575 19.5105C23.0575 22.0747 21.071 24.1558 18.6233 24.1558C16.1757 24.1558 14.1892 22.0747 14.1892 19.5105C14.1892 16.9463 16.1757 14.8652 18.6233 14.8652C21.071 14.8281 23.0575 16.9092 23.0575 19.5105Z" fill="#009645"/>
<path d="M28.0591 44.0002L18.6233 19.4731L42.0355 29.3583L32.3159 33.8177L28.0591 44.0002ZM21.5675 22.5948L28.13 39.615L31.0743 32.5542L37.8142 29.4698L21.5675 22.5948Z" fill="#363031"/>
<path d="M32.2576 32.5661L31.1038 33.7749L36.8979 39.845L38.0517 38.6362L32.2576 32.5661Z" fill="#363031"/>
</g>
<defs>
<clipPath id="clip0">
<rect width="42" height="44" fill="white"/>
</clipPath>
</defs>
</svg>
