<svg width="102" height="60" viewBox="0 0 102 60" fill="none" xmlns="http://www.w3.org/2000/svg">
<path fill-rule="evenodd" clip-rule="evenodd" d="M83.5955 28.9888H101.296V37.8013H70.4791V28.9888L88.4063 8.80719H71.5793V0H101.302V8.81258L101.296 9.05528L83.5955 28.9888ZM37.8175 58.3658C37.6881 58.5115 37.5155 58.6355 37.3052 58.7326C37.0948 58.8297 36.836 58.8782 36.5339 58.8782C36.2481 58.8782 35.9946 58.8243 35.7735 58.711C35.5524 58.5978 35.3636 58.436 35.2072 58.2202C35.0508 58.0045 34.9267 57.7402 34.8404 57.4328C34.7542 57.12 34.711 56.7748 34.711 56.3919C34.711 56.0629 34.7434 55.7393 34.8081 55.4157C34.8728 55.0975 34.9807 54.8117 35.1317 54.5582C35.2827 54.3047 35.4822 54.0998 35.7303 53.9434C35.9784 53.787 36.2858 53.7115 36.658 53.7115C36.8683 53.7115 37.0786 53.7438 37.2782 53.8139C37.4777 53.8787 37.6234 53.9703 37.715 54.0782L37.2566 54.9519C37.0786 54.7847 36.8683 54.7038 36.6256 54.7038C36.3613 54.7038 36.178 54.8171 36.0593 55.0382C35.9461 55.2593 35.8867 55.5991 35.8867 56.0575C35.8867 56.5375 35.9137 56.9151 35.9622 57.1793C36.0108 57.4436 36.0863 57.6216 36.1942 57.7133C36.2589 57.7726 36.3236 57.8157 36.3937 57.8481C36.4638 57.8804 36.5393 57.8966 36.6256 57.8966C36.7604 57.8966 36.8899 57.8751 37.0085 57.8265C37.1272 57.7834 37.2458 57.6971 37.3645 57.573L37.8175 58.3658ZM38.3784 57.7888C38.4809 57.4652 38.5672 57.1308 38.6373 56.7856C38.7074 56.4405 38.7613 56.0791 38.8045 55.7016C38.8153 55.6369 38.8207 55.5614 38.8315 55.4643C38.8422 55.3672 38.8476 55.2647 38.8584 55.1569C38.8692 55.049 38.8746 54.9465 38.88 54.844C38.8854 54.7416 38.8908 54.6553 38.8908 54.5852L38.9177 53.8031H41.5928V57.7942H42.0512V60H40.9942V58.7973H38.9663V60H37.9092V57.7942H38.3784V57.7888ZM40.5357 57.7888V54.7793H39.8508L39.8292 55.3186C39.8184 55.4643 39.8076 55.6261 39.7915 55.8148C39.7753 56.0036 39.7591 56.1654 39.7321 56.311C39.6998 56.5537 39.6566 56.8018 39.6027 57.0445C39.5488 57.2926 39.4733 57.5407 39.3708 57.7942H40.5357V57.7888ZM42.4827 58.7919V53.7978H44.9043L44.7964 54.7793H43.5398V55.7178H44.5699V56.6778H43.5398V57.7888H44.9204V58.7919H42.4827ZM48.604 58.7919H47.547V54.7793H46.9213L46.889 55.4049C46.8836 55.5236 46.8782 55.6692 46.8674 55.8418C46.8566 56.0144 46.8512 56.1924 46.8404 56.3811C46.8297 56.5699 46.8189 56.7479 46.8081 56.9258C46.7919 57.1038 46.7811 57.2602 46.7649 57.3897C46.7488 57.5515 46.7164 57.724 46.6786 57.9128C46.6409 58.1016 46.56 58.2634 46.4467 58.3982C46.3227 58.5492 46.1879 58.6517 46.0315 58.7002C45.875 58.7488 45.7402 58.7865 45.6216 58.8135L45.3195 58.8728L45.0822 58.0207L45.2494 57.9613C45.298 57.9398 45.3519 57.9182 45.4004 57.8912C45.4544 57.8643 45.5029 57.8319 45.5515 57.7942C45.6108 57.7456 45.6593 57.6809 45.6917 57.5892C45.7294 57.5029 45.7564 57.4058 45.7834 57.298C45.8103 57.1955 45.8265 57.0822 45.8373 56.9744C45.8481 56.8611 45.8589 56.7587 45.8697 56.6616C45.8858 56.5106 45.8966 56.3488 45.9074 56.1762C45.9182 56.009 45.929 55.8364 45.9344 55.6638C45.9398 55.4912 45.9506 55.324 45.9559 55.1622C45.9613 55.0005 45.9667 54.8494 45.9667 54.7038L45.9829 53.7924H48.604V58.7919ZM51.5272 58.7919L51.3061 57.7942H50.2921L50.0602 58.7919H48.9438L50.2706 53.7978H51.4193L52.6652 58.7919H51.5272ZM50.8962 55.7717C50.8746 55.6476 50.853 55.5236 50.8422 55.4049C50.8261 55.2863 50.8207 55.173 50.8153 55.0706H50.7991C50.7937 55.173 50.7829 55.2863 50.7667 55.4049C50.7506 55.5236 50.7344 55.6476 50.7074 55.7717L50.4917 56.9151H51.1065L50.8962 55.7717ZM54.9034 58.7919V56.6885H54.0566V58.7919H52.9995V53.7978H54.0566V55.6369H54.9034V53.7978H55.9604V58.7919H54.9034ZM60.2643 56.1061C60.2643 56.5429 60.2265 56.9528 60.1456 57.3411C60.0647 57.7294 59.9191 58.0584 59.7034 58.3173C59.5577 58.4899 59.3852 58.6247 59.1748 58.7272C58.9699 58.8297 58.7164 58.8782 58.4252 58.8782C58.1663 58.8782 57.9398 58.8351 57.7348 58.7542C57.5299 58.6733 57.3519 58.5492 57.2009 58.3928C56.9959 58.1771 56.8342 57.902 56.7263 57.573C56.6184 57.2387 56.5645 56.8557 56.5645 56.4243C56.5645 55.982 56.6076 55.5883 56.6993 55.2539C56.791 54.9196 56.9151 54.6337 57.0769 54.4072C57.2386 54.1807 57.4274 54.0081 57.6539 53.8894C57.8804 53.7762 58.1285 53.7169 58.3982 53.7169C58.6625 53.7169 58.8944 53.76 59.0939 53.8463C59.2935 53.9326 59.4661 54.0458 59.6063 54.1915C59.7249 54.3101 59.822 54.4449 59.9083 54.596C59.9892 54.747 60.0593 54.9088 60.1133 55.076C60.1672 55.2431 60.2049 55.4157 60.2265 55.5937C60.2535 55.7609 60.2643 55.9335 60.2643 56.1061ZM59.0885 56.2463C59.0885 55.8364 59.067 55.5182 59.0292 55.3025C58.9861 55.0813 58.9267 54.9196 58.8404 54.8171C58.7865 54.7524 58.7218 54.7038 58.6517 54.6769C58.5816 54.6499 58.5007 54.6391 58.409 54.6391C58.3389 54.6391 58.2688 54.6553 58.1986 54.6876C58.1285 54.72 58.0746 54.7685 58.0315 54.8386C57.9344 54.9843 57.8589 55.173 57.8157 55.4157C57.7726 55.6584 57.751 55.9389 57.751 56.2625C57.751 56.6184 57.7672 56.9043 57.7995 57.1254C57.8319 57.3465 57.8858 57.5191 57.9506 57.6432C58.0099 57.751 58.0746 57.8265 58.1555 57.8697C58.231 57.9128 58.3227 57.929 58.4252 57.929C58.5384 57.929 58.6355 57.9074 58.7164 57.8589C58.7973 57.8103 58.8674 57.724 58.9213 57.6C58.9807 57.4706 59.0238 57.298 59.0508 57.0822C59.0777 56.8665 59.0885 56.5861 59.0885 56.2463ZM65.3501 57.2494C65.3501 57.4975 65.3177 57.724 65.2476 57.9236C65.1775 58.1231 65.0697 58.2957 64.924 58.4306C64.8054 58.5438 64.6652 58.6355 64.5034 58.6948C64.3362 58.7596 64.1474 58.7865 63.9317 58.7865H62.3029V53.7924H63.9856C64.1798 53.7924 64.3577 53.8193 64.5249 53.8787C64.6921 53.938 64.8324 54.0351 64.951 54.1699C65.0319 54.267 65.0966 54.3802 65.1398 54.5205C65.1829 54.6607 65.2099 54.8225 65.2099 55.0166C65.2099 55.1299 65.1991 55.2431 65.1721 55.3564C65.1452 55.4697 65.1074 55.5721 65.0589 55.6692C65.0049 55.7663 64.9402 55.858 64.8593 55.9335C64.7784 56.0144 64.6813 56.0737 64.5681 56.1169C64.6652 56.1492 64.7622 56.1978 64.8539 56.2571C64.9456 56.3164 65.0265 56.3919 65.0966 56.4836C65.1721 56.5807 65.2368 56.6939 65.28 56.818C65.3231 56.9582 65.3501 57.0984 65.3501 57.2494ZM64.142 57.2333C64.142 57.1416 64.1312 57.0499 64.1043 56.9636C64.0773 56.8719 64.0288 56.8018 63.9533 56.7479C63.8831 56.6993 63.8022 56.6778 63.7052 56.6778H63.3546V57.7888H63.7213C63.8724 57.7888 63.9802 57.7348 64.0449 57.627C64.1097 57.5191 64.142 57.3897 64.142 57.2333ZM64.1258 55.2539C64.1258 55.2 64.1204 55.1515 64.1096 55.0975C64.0989 55.049 64.0827 55.0058 64.0611 54.9627C63.991 54.8386 63.8777 54.7739 63.7213 54.7739H63.3546V55.7178H63.7321C63.8238 55.7178 63.8939 55.6962 63.9533 55.6584C64.0072 55.6207 64.0503 55.5667 64.0773 55.502C64.1096 55.4427 64.1258 55.3564 64.1258 55.2539ZM70.7002 54.4989L70.4359 54.5906C70.4036 54.6013 70.3712 54.6121 70.3389 54.6283C70.3065 54.6445 70.2795 54.6607 70.2634 54.6769C70.2418 54.6984 70.2202 54.7308 70.204 54.7739C70.1879 54.8171 70.1717 54.8818 70.1447 54.9735L70.0314 55.4157C69.9883 55.5775 69.9559 55.6962 69.929 55.7609C69.902 55.831 69.8697 55.8849 69.8373 55.9227C69.7402 56.0306 69.6324 56.1007 69.5137 56.133V56.1492C69.5838 56.1762 69.6539 56.2193 69.7079 56.2733C69.7672 56.3272 69.8157 56.3811 69.8589 56.4458C69.902 56.5106 69.9398 56.5807 69.9613 56.6562C69.9883 56.7263 70.0099 56.8018 70.0314 56.8719L70.2364 57.5892C70.258 57.6647 70.2795 57.7294 70.3011 57.7834C70.3227 57.8373 70.3496 57.8805 70.3928 57.9182C70.4575 57.9721 70.533 58.0099 70.6139 58.0315L70.8297 58.0908L70.5924 58.8944L70.2634 58.8674C70.1285 58.8566 69.9829 58.8351 69.8319 58.7919C69.6809 58.7488 69.5515 58.6571 69.449 58.5169C69.4058 58.4521 69.3681 58.3766 69.3357 58.2795C69.3034 58.1825 69.271 58.053 69.2386 57.8858L69.1308 57.2818C69.1146 57.2063 69.0984 57.1254 69.0714 57.0445C69.0445 56.9636 69.0121 56.8935 68.9582 56.8396C68.9043 56.7748 68.8449 56.7317 68.7802 56.7155C68.7155 56.6993 68.6562 56.6885 68.6022 56.6885H68.4351V58.8027H67.378V53.8085H68.4351V55.6584H68.667C68.7317 55.6584 68.7964 55.6476 68.8611 55.6315C68.9258 55.6153 68.9852 55.5721 69.0391 55.4966C69.0822 55.4427 69.1146 55.3834 69.1362 55.3079C69.1577 55.2324 69.1739 55.1622 69.1847 55.0975L69.2818 54.5798C69.3034 54.4557 69.3357 54.3479 69.3735 54.2562C69.4112 54.1645 69.4706 54.0782 69.5461 54.0081C69.6377 53.9272 69.7348 53.8733 69.8373 53.8409C69.9398 53.8085 70.0422 53.787 70.1501 53.7708L70.4413 53.733L70.7002 54.4989ZM73.413 58.7919L73.1919 57.7942H72.178L71.9461 58.7919H70.8297L72.1564 53.7978H73.3052L74.551 58.7919H73.413ZM72.782 55.7717C72.7604 55.6476 72.7389 55.5236 72.7281 55.4049C72.7119 55.2863 72.7065 55.173 72.7011 55.0706H72.6849C72.6795 55.173 72.6688 55.2863 72.6526 55.4049C72.6364 55.5236 72.6202 55.6476 72.5932 55.7717L72.3775 56.9151H72.9923L72.782 55.7717ZM75.4571 55.7663H75.7213C75.7375 55.7663 75.7591 55.7663 75.7968 55.7609C75.8346 55.7609 75.8777 55.7501 75.9263 55.7447C75.9748 55.7339 76.0234 55.7231 76.0719 55.7016C76.1204 55.68 76.1636 55.6584 76.1959 55.6207C76.2229 55.5991 76.2499 55.5506 76.2768 55.4858C76.3038 55.4211 76.32 55.3348 76.32 55.227C76.32 55.1622 76.3146 55.1029 76.3038 55.0328C76.293 54.9681 76.2661 54.9088 76.2175 54.8548C76.1582 54.7847 76.0881 54.7416 76.0072 54.7254C75.9263 54.7092 75.867 54.7038 75.8238 54.7038C75.6782 54.7038 75.5488 54.7254 75.4247 54.7685C75.3007 54.8117 75.2036 54.8656 75.1227 54.9249L74.6481 54.1106C74.7991 54.0081 74.9393 53.9272 75.0795 53.8733C75.2413 53.8085 75.3977 53.7708 75.5541 53.7438C75.7052 53.7222 75.8616 53.7061 76.0126 53.7061C76.3685 53.7061 76.649 53.7654 76.8431 53.884C77.0427 54.0027 77.1883 54.1537 77.2746 54.3263C77.3339 54.4342 77.3717 54.5528 77.3986 54.6769C77.4202 54.8009 77.431 54.9249 77.431 55.0436C77.431 55.1784 77.4148 55.2971 77.3879 55.3995C77.3609 55.502 77.3231 55.5991 77.28 55.68C77.2315 55.7663 77.1667 55.8472 77.0858 55.9173C77.0049 55.9928 76.9132 56.0521 76.8108 56.0953C76.9402 56.133 77.0535 56.1924 77.1506 56.2733C77.2476 56.3542 77.3231 56.4351 77.3825 56.516C77.458 56.6346 77.5119 56.764 77.5389 56.8989C77.5658 57.0337 77.582 57.1631 77.582 57.2872C77.582 57.5029 77.555 57.7025 77.4957 57.8912C77.4418 58.08 77.3393 58.2526 77.1883 58.4036C77.0049 58.5978 76.7946 58.7272 76.5681 58.7811C76.3362 58.8405 76.1151 58.8674 75.8993 58.8674C75.7591 58.8674 75.6189 58.8566 75.4679 58.8297C75.3222 58.8081 75.1712 58.7595 75.0094 58.684C74.9177 58.6463 74.8315 58.5978 74.7452 58.5384C74.6589 58.4791 74.578 58.4198 74.5025 58.3497L74.9771 57.5569C75.0418 57.6054 75.0957 57.6378 75.1389 57.6647C75.182 57.6863 75.2467 57.7187 75.3222 57.7564C75.4193 57.8049 75.5649 57.8265 75.7699 57.8265C75.9155 57.8265 76.0234 57.8049 76.0935 57.7672C76.1636 57.724 76.2121 57.6917 76.2337 57.6701C76.2984 57.6054 76.3362 57.5353 76.3523 57.4598C76.3685 57.3897 76.3739 57.3142 76.3739 57.244C76.3739 57.1793 76.3685 57.0984 76.3523 57.0067C76.3362 56.9151 76.2984 56.8396 76.2391 56.7694C76.1744 56.7047 76.0989 56.667 76.0126 56.6562C75.9263 56.64 75.8346 56.6346 75.7429 56.6346H75.4463V55.7663H75.4571ZM80.2948 58.7919L80.0737 57.7942H79.0598L78.8279 58.7919H77.7114L79.0382 53.7978H80.187L81.4328 58.7919H80.2948ZM79.6638 55.7717C79.6422 55.6476 79.6207 55.5236 79.6099 55.4049C79.5937 55.2863 79.5883 55.173 79.5829 55.0706H79.5667C79.5613 55.173 79.5506 55.2863 79.5344 55.4049C79.5182 55.5236 79.502 55.6476 79.475 55.7717L79.2593 56.9151H79.8741L79.6638 55.7717ZM83.6656 58.7919L83.1425 57.3897L82.6031 58.7919H81.2656L82.5438 56.1978L81.395 53.7978H82.7002L83.1425 55.0058L83.5685 53.7978H84.8413L83.7303 56.1169L84.9492 58.7865H83.6656V58.7919ZM88.1474 58.3658C88.018 58.5115 87.8454 58.6355 87.635 58.7326C87.4247 58.8297 87.1658 58.8782 86.8638 58.8782C86.578 58.8782 86.3245 58.8243 86.1034 58.711C85.8822 58.5978 85.6935 58.436 85.5371 58.2202C85.3807 58.0045 85.2566 57.7402 85.1703 57.4328C85.084 57.12 85.0409 56.7748 85.0409 56.3919C85.0409 56.0629 85.0732 55.7393 85.138 55.4157C85.2027 55.0975 85.3105 54.8117 85.4616 54.5582C85.6126 54.3047 85.8121 54.0998 86.0602 53.9434C86.3083 53.787 86.6157 53.7115 86.9879 53.7115C87.1982 53.7115 87.4085 53.7438 87.6081 53.8139C87.8076 53.8787 87.9532 53.9703 88.0449 54.0782L87.5865 54.9519C87.4085 54.7847 87.1982 54.7038 86.9555 54.7038C86.6912 54.7038 86.5079 54.8171 86.3892 55.0382C86.2759 55.2593 86.2166 55.5991 86.2166 56.0575C86.2166 56.5375 86.2436 56.9151 86.2921 57.1793C86.3407 57.4436 86.4162 57.6216 86.524 57.7133C86.5888 57.7726 86.6535 57.8157 86.7236 57.8481C86.7937 57.8804 86.8692 57.8966 86.9555 57.8966C87.0903 57.8966 87.2198 57.8751 87.3384 57.8265C87.4571 57.7834 87.5757 57.6971 87.6944 57.573L88.1474 58.3658ZM91.2539 54.7739H90.3047V58.7919H89.2368V54.7739H88.2822V53.7978H91.3888L91.2539 54.7739ZM93.7726 58.7919L93.5514 57.7942H92.5375L92.3056 58.7919H91.1892L92.5159 53.7978H93.6647L94.9106 58.7919H93.7726ZM93.1416 55.7717C93.12 55.6476 93.0984 55.5236 93.0876 55.4049C93.0714 55.2863 93.0661 55.173 93.0607 55.0706H93.0445C93.0391 55.173 93.0283 55.2863 93.0121 55.4049C92.9959 55.5236 92.9798 55.6476 92.9528 55.7717L92.7371 56.9151H93.3519L93.1416 55.7717ZM97.1488 58.7919V56.6885H96.302V58.7919H95.2449V53.7978H96.302V55.6369H97.1488V53.7978H98.2058V58.7919H97.1488ZM99.0148 58.7919V53.7978H101.436L101.329 54.7793H100.072V55.7178H101.102V56.6778H100.072V57.7888H101.453V58.7919H99.0148ZM37.9955 45.6108L37.7474 45.7025C37.7204 45.7133 37.6881 45.724 37.6557 45.7402C37.6234 45.7564 37.6018 45.7726 37.5856 45.7888C37.564 45.8103 37.5479 45.8427 37.5317 45.8858C37.5155 45.929 37.4993 45.9937 37.4777 46.0854L37.3699 46.5276C37.3321 46.6894 37.2998 46.8081 37.2728 46.8728C37.2458 46.9429 37.2189 46.9969 37.1865 47.0346C37.1002 47.1425 36.9977 47.2126 36.8845 47.2449V47.2611C36.9546 47.2881 37.0139 47.3312 37.0679 47.3852C37.1218 47.4391 37.1703 47.493 37.2081 47.5578C37.2512 47.6225 37.2836 47.6926 37.3052 47.7681C37.3267 47.8382 37.3483 47.9137 37.3699 47.9838L37.5586 48.7011C37.5694 48.7389 37.5748 48.7766 37.5856 48.8144C37.5964 48.8521 37.6072 48.8845 37.618 48.9115H38.1088V51.1173H37.1218V49.8876C37.0625 49.8661 37.0085 49.8337 36.96 49.7906C36.9115 49.7474 36.8629 49.6989 36.8198 49.6288C36.7766 49.564 36.7443 49.4885 36.7119 49.3915C36.6849 49.2944 36.6526 49.1649 36.6256 48.9978L36.5231 48.3937C36.5124 48.3182 36.4908 48.2373 36.4692 48.1564C36.4476 48.0755 36.4099 48.0054 36.3667 47.9515C36.3182 47.8867 36.2589 47.8436 36.1995 47.8274C36.1402 47.8112 36.0809 47.8004 36.0324 47.8004H35.8759V49.9146H34.889V44.9205H35.8759V46.7703H36.0917C36.151 46.7703 36.2103 46.7596 36.2697 46.7434C36.329 46.7272 36.3883 46.684 36.4368 46.6085C36.48 46.5546 36.507 46.4953 36.5285 46.4198C36.5501 46.3443 36.5609 46.2742 36.5771 46.2094L36.6634 45.6917C36.6849 45.5676 36.7119 45.4598 36.7497 45.3681C36.7874 45.2764 36.8413 45.1901 36.9115 45.12C36.9977 45.0391 37.084 44.9852 37.1811 44.9528C37.2782 44.9204 37.3753 44.8989 37.4724 44.8827L37.742 44.8449L37.9955 45.6108ZM40.5357 49.8984L40.3254 48.9007H39.3762L39.1604 49.8984H38.1142L39.3546 44.9043H40.4279L41.5928 49.8984H40.5357ZM39.9479 46.8836C39.9263 46.7596 39.9101 46.6355 39.8993 46.5169C39.8885 46.3982 39.8777 46.2849 39.8724 46.1825H39.8616C39.8562 46.2849 39.8454 46.3982 39.8346 46.5169C39.8184 46.6355 39.8022 46.7596 39.7807 46.8836L39.5757 48.027H40.1528L39.9479 46.8836ZM42.4449 46.8782H42.693C42.7038 46.8782 42.7308 46.8782 42.7631 46.8728C42.8009 46.8728 42.8386 46.862 42.8818 46.8566C42.9249 46.8458 42.9735 46.8351 43.0166 46.8135C43.0652 46.7919 43.1029 46.7703 43.1299 46.7326C43.1568 46.711 43.1784 46.6625 43.2054 46.5978C43.2324 46.533 43.2431 46.4467 43.2431 46.3389C43.2431 46.2742 43.2377 46.2148 43.227 46.1447C43.2162 46.08 43.1892 46.0207 43.1461 45.9667C43.0921 45.8966 43.0274 45.8535 42.9519 45.8373C42.8764 45.8211 42.8171 45.8157 42.7793 45.8157C42.6445 45.8157 42.5204 45.8373 42.4072 45.8805C42.2939 45.9236 42.1968 45.9775 42.1213 46.0369L41.6791 45.2225C41.8193 45.12 41.9542 45.0391 42.0836 44.9852C42.2346 44.9204 42.3856 44.8827 42.5258 44.8557C42.6715 44.8342 42.8117 44.818 42.9573 44.818C43.2917 44.818 43.5506 44.8773 43.7339 44.996C43.9173 45.1146 44.0521 45.2656 44.1384 45.4382C44.1924 45.5461 44.2301 45.6647 44.2517 45.7888C44.2733 45.9128 44.284 46.0369 44.284 46.1555C44.284 46.2903 44.2733 46.409 44.2463 46.5115C44.2193 46.6139 44.187 46.711 44.1438 46.7919C44.0953 46.8782 44.0359 46.9591 43.9604 47.0292C43.8849 47.1047 43.7986 47.164 43.7016 47.2072C43.8256 47.2449 43.9281 47.3043 44.0198 47.3852C44.1115 47.4661 44.1816 47.547 44.2355 47.6279C44.3056 47.7465 44.3542 47.876 44.3865 48.0108C44.4135 48.1456 44.4297 48.2751 44.4297 48.3991C44.4297 48.6148 44.4027 48.8144 44.3488 49.0031C44.2948 49.1919 44.1977 49.3645 44.0629 49.5155C43.8903 49.7097 43.6962 49.8391 43.4804 49.893C43.2647 49.9524 43.0544 49.9793 42.8548 49.9793C42.7254 49.9793 42.5906 49.9685 42.4557 49.9416C42.3209 49.92 42.1753 49.8715 42.0297 49.796C41.9434 49.7582 41.8625 49.7097 41.7816 49.6503C41.7007 49.591 41.6252 49.5317 41.555 49.4616L41.9973 48.6688C42.0566 48.7173 42.1052 48.7497 42.1483 48.7766C42.1915 48.7982 42.2454 48.8306 42.3209 48.8683C42.4072 48.9169 42.5474 48.9384 42.7362 48.9384C42.871 48.9384 42.9735 48.9169 43.0382 48.8791C43.1083 48.836 43.1515 48.8036 43.173 48.782C43.2324 48.7173 43.2701 48.6472 43.2863 48.5717C43.3025 48.5016 43.3079 48.4261 43.3079 48.356C43.3079 48.2912 43.3025 48.2103 43.2863 48.1187C43.2755 48.027 43.2377 47.9515 43.1784 47.8813C43.1191 47.8166 43.049 47.7789 42.9681 47.7681C42.8872 47.7519 42.8009 47.7465 42.72 47.7465H42.4449V46.8782ZM46.9699 49.8984L46.7595 48.9007H45.8103L45.5946 49.8984H44.5483L45.7888 44.9043H46.8674L48.0324 49.8984H46.9699ZM46.382 46.8836C46.3604 46.7596 46.3443 46.6355 46.3335 46.5169C46.3227 46.3982 46.3119 46.2849 46.3065 46.1825H46.2957C46.2903 46.2849 46.2795 46.3982 46.2688 46.5169C46.2526 46.6355 46.2364 46.7596 46.2148 46.8836L46.0099 48.027H46.587L46.382 46.8836ZM51.4571 45.6108L51.209 45.7025C51.182 45.7133 51.1497 45.724 51.1173 45.7402C51.0849 45.7564 51.0634 45.7726 51.0472 45.7888C51.0256 45.8103 51.0094 45.8427 50.9933 45.8858C50.9771 45.929 50.9609 45.9937 50.9393 46.0854L50.8315 46.5276C50.7937 46.6894 50.7613 46.8081 50.7344 46.8728C50.7074 46.9375 50.6804 46.9969 50.6481 47.0346C50.5618 47.1425 50.4593 47.2126 50.3461 47.2449V47.2611C50.4162 47.2881 50.4755 47.3312 50.5294 47.3852C50.5834 47.4391 50.6319 47.493 50.6697 47.5578C50.7128 47.6225 50.7452 47.6926 50.7667 47.7681C50.7883 47.8382 50.8099 47.9137 50.8315 47.9838L51.0202 48.7011C51.031 48.7389 51.0364 48.7766 51.0472 48.8144C51.058 48.8521 51.0688 48.8845 51.0795 48.9115H51.5703V51.1173H50.5888V49.8876C50.5294 49.8661 50.4755 49.8337 50.427 49.7906C50.3784 49.7474 50.3299 49.6989 50.2867 49.6288C50.2436 49.564 50.2112 49.4885 50.1789 49.3915C50.1519 49.2944 50.1195 49.1649 50.0926 48.9978L49.9901 48.3937C49.9793 48.3182 49.9577 48.2373 49.9362 48.1564C49.9146 48.0755 49.8768 48.0054 49.8337 47.9515C49.7852 47.8867 49.7258 47.8436 49.6665 47.8274C49.6072 47.8112 49.5479 47.8004 49.4993 47.8004H49.3429V49.9146H48.3559V44.9205H49.3429V46.7703H49.5586C49.618 46.7703 49.6773 46.7596 49.7366 46.7434C49.7959 46.7272 49.8553 46.684 49.9038 46.6085C49.947 46.5546 49.9739 46.4953 49.9955 46.4198C50.0171 46.3443 50.0279 46.2742 50.044 46.2094L50.1303 45.6917C50.1519 45.5676 50.1789 45.4598 50.2166 45.3681C50.2544 45.2764 50.3083 45.1901 50.3784 45.12C50.4647 45.0391 50.551 44.9852 50.6481 44.9528C50.7452 44.9204 50.8422 44.8989 50.9393 44.8827L51.209 44.8449L51.4571 45.6108ZM54.7362 49.4778C54.6121 49.6234 54.4557 49.7474 54.2562 49.8445C54.0566 49.9416 53.8193 49.9901 53.5335 49.9901C53.2692 49.9901 53.0319 49.9362 52.827 49.8229C52.622 49.7097 52.444 49.5479 52.293 49.3321C52.1474 49.1164 52.0341 48.8521 51.9533 48.5447C51.8724 48.2319 51.8346 47.8867 51.8346 47.5038C51.8346 47.1748 51.867 46.8512 51.9263 46.5276C51.9856 46.2094 52.0881 45.9236 52.2283 45.6701C52.3685 45.4166 52.5573 45.2117 52.7892 45.0553C53.0211 44.8989 53.3124 44.8234 53.6575 44.8234C53.8571 44.8234 54.0512 44.8557 54.2346 44.9258C54.4234 44.9906 54.5582 45.0822 54.6445 45.1901L54.213 46.0638C54.0512 45.8966 53.8517 45.8157 53.6252 45.8157C53.3825 45.8157 53.2045 45.929 53.0966 46.1501C52.9888 46.3712 52.9348 46.711 52.9348 47.1694C52.9348 47.6494 52.9564 48.027 53.0049 48.2912C53.0535 48.5555 53.1236 48.7335 53.2207 48.8252C53.28 48.8845 53.3393 48.9276 53.4094 48.96C53.4742 48.9924 53.5497 49.0085 53.6252 49.0085C53.7492 49.0085 53.8733 48.987 53.9811 48.9384C54.0944 48.8953 54.2022 48.809 54.3155 48.6849L54.7362 49.4778ZM57.6431 45.8805H56.7586V49.8984H55.7609V45.8805H54.871V44.9043H57.7726L57.6431 45.8805ZM59.9946 49.8984L59.7843 48.9007H58.8404L58.6247 49.8984H57.5784L58.8189 44.9043H59.8921L61.0571 49.8984H59.9946ZM59.4067 46.8836C59.3852 46.7596 59.369 46.6355 59.3582 46.5169C59.3474 46.3982 59.3366 46.2849 59.3312 46.1825H59.3204C59.315 46.2849 59.3043 46.3982 59.2935 46.5169C59.2773 46.6355 59.2611 46.7596 59.2395 46.8836L59.0346 48.027H59.6117L59.4067 46.8836ZM63.1497 49.8984V47.7951H62.3568V49.8984H61.3753V44.9043H62.3622V46.7434H63.155V44.9043H64.142V49.8984H63.1497ZM64.978 48.8953C65.0751 48.5717 65.156 48.2373 65.2207 47.8921C65.2854 47.547 65.3393 47.1856 65.3771 46.8081C65.3879 46.7434 65.3932 46.6679 65.404 46.5708C65.4148 46.4737 65.4202 46.3712 65.431 46.2634C65.4418 46.1555 65.4472 46.053 65.4526 45.9506C65.458 45.8481 65.4634 45.7618 65.4634 45.6917L65.4903 44.9097H67.9874V48.9007H68.4189V51.1065H67.4319V49.9038H65.5335V51.1065H64.5465V48.9007H64.978V48.8953ZM67.0004 48.8953V45.8858H66.364L66.3425 46.4252C66.3317 46.5708 66.3209 46.7326 66.3101 46.9213C66.2939 47.1101 66.2777 47.2719 66.2562 47.4175C66.2292 47.6602 66.1861 47.9083 66.1375 48.151C66.089 48.3991 66.0135 48.6472 65.9218 48.9007H67.0004V48.8953ZM70.7919 49.8984L70.5816 48.9007H69.6323L69.4166 49.8984H68.3703L69.6108 44.9043H70.684L71.849 49.8984H70.7919ZM70.204 46.8836C70.1825 46.7596 70.1663 46.6355 70.1555 46.5169C70.1447 46.3982 70.1339 46.2849 70.1285 46.1825H70.1177C70.1124 46.2849 70.1016 46.3982 70.0908 46.5169C70.0746 46.6355 70.0584 46.7596 70.0368 46.8836L69.8319 48.027H70.409L70.204 46.8836ZM78.5312 45.6108L78.2831 45.7025C78.2562 45.7133 78.2238 45.724 78.1915 45.7402C78.1591 45.7564 78.1375 45.7726 78.1213 45.7888C78.0998 45.8103 78.0836 45.8427 78.0674 45.8858C78.0512 45.929 78.035 45.9937 78.0135 46.0854L77.9056 46.5276C77.8679 46.6894 77.8355 46.8081 77.8085 46.8728C77.7816 46.9429 77.7546 46.9969 77.7222 47.0346C77.6359 47.1425 77.5335 47.2126 77.4202 47.2449V47.2611C77.4903 47.2881 77.5497 47.3312 77.6036 47.3852C77.6575 47.4391 77.7061 47.493 77.7438 47.5578C77.787 47.6225 77.8193 47.6926 77.8409 47.7681C77.8625 47.8382 77.884 47.9137 77.9056 47.9838L78.0944 48.7011C78.1159 48.7766 78.1375 48.8413 78.1537 48.8953C78.1753 48.9492 78.2022 48.9924 78.24 49.0301C78.2993 49.084 78.3694 49.1218 78.4503 49.1434L78.6553 49.2027L78.4342 50.0063L78.1267 49.9793C78.0027 49.9685 77.8679 49.947 77.7276 49.9038C77.5874 49.8607 77.4688 49.769 77.3717 49.6288C77.3285 49.564 77.2962 49.4885 77.2638 49.3915C77.2368 49.2944 77.2045 49.1649 77.1775 48.9978L77.075 48.3937C77.0643 48.3182 77.0427 48.2373 77.0211 48.1564C76.9995 48.0755 76.9618 48.0054 76.9186 47.9515C76.8701 47.8867 76.8108 47.8436 76.7514 47.8274C76.6921 47.8112 76.6328 47.8004 76.5843 47.8004H76.4279V49.9146H75.4409V47.7843H75.2845C75.2359 47.7843 75.1766 47.7951 75.1173 47.8112C75.058 47.8274 74.9986 47.8706 74.9501 47.9353C74.9016 47.9892 74.8692 48.0539 74.8476 48.1402C74.8261 48.2211 74.8045 48.302 74.7937 48.3775L74.6912 48.9816C74.6643 49.1488 74.6319 49.2782 74.6049 49.3753C74.578 49.4724 74.5402 49.5479 74.4971 49.6126C74.4 49.7582 74.2813 49.8499 74.1411 49.8876C74.0009 49.9308 73.8661 49.9524 73.742 49.9631L73.4346 49.9901L73.2135 49.1865L73.4184 49.1272C73.4993 49.1056 73.5694 49.0625 73.6288 49.0139C73.6665 48.9762 73.6935 48.933 73.715 48.8791C73.7366 48.8252 73.7528 48.7605 73.7744 48.6849L73.9631 47.9676C73.9847 47.8975 74.0063 47.822 74.0279 47.7519C74.0494 47.6818 74.0818 47.6117 74.1249 47.5416C74.1627 47.4769 74.2112 47.4229 74.2652 47.369C74.3191 47.3151 74.3838 47.2773 74.4485 47.2449C74.3353 47.218 74.2328 47.1479 74.1465 47.0346C74.1195 46.9969 74.0872 46.9429 74.0602 46.8728C74.0332 46.8027 74.0009 46.6894 73.9631 46.5276L73.8553 46.0854C73.8337 45.9937 73.8175 45.929 73.8013 45.8858C73.7852 45.8427 73.769 45.8103 73.7474 45.7888C73.7312 45.7672 73.7043 45.751 73.6773 45.7402C73.6449 45.724 73.6126 45.7133 73.5856 45.7025L73.3375 45.6108L73.5856 44.8396L73.8553 44.8773C73.9524 44.8935 74.0494 44.9151 74.1465 44.9474C74.2436 44.9798 74.3353 45.0337 74.4162 45.1146C74.4863 45.1847 74.5402 45.271 74.578 45.3627C74.6157 45.4544 74.6427 45.5622 74.6643 45.6863L74.7505 46.204C74.7613 46.2688 74.7775 46.3389 74.7991 46.4144C74.8207 46.4899 74.8476 46.5492 74.8908 46.6031C74.9393 46.6733 74.9986 46.7164 75.058 46.738C75.1173 46.7542 75.1766 46.7649 75.2359 46.7649H75.4517V44.9151H76.4386V46.7649H76.6544C76.7137 46.7649 76.773 46.7542 76.8324 46.738C76.8917 46.7218 76.951 46.6786 76.9995 46.6031C77.0427 46.5492 77.0697 46.4899 77.0912 46.4144C77.1128 46.3389 77.1236 46.2688 77.1398 46.204L77.2261 45.6863C77.2476 45.5622 77.2746 45.4544 77.3123 45.3627C77.3501 45.271 77.404 45.1847 77.4741 45.1146C77.5604 45.0337 77.6467 44.9798 77.7438 44.9474C77.8409 44.9151 77.938 44.8935 78.035 44.8773L78.3047 44.8396L78.5312 45.6108ZM81.0661 49.8984L80.8557 48.9007H79.9065L79.6908 49.8984H78.6445L79.8849 44.9043H80.9582L82.1231 49.8984H81.0661ZM80.4782 46.8836C80.4566 46.7596 80.4404 46.6355 80.4297 46.5169C80.4189 46.3982 80.4081 46.2849 80.4027 46.1825H80.3919C80.3865 46.2849 80.3757 46.3982 80.3649 46.5169C80.3488 46.6355 80.3326 46.7596 80.311 46.8836L80.1061 48.027H80.6831L80.4782 46.8836ZM85.1595 49.4778C85.0355 49.6234 84.8791 49.7474 84.6795 49.8445C84.48 49.9416 84.2427 49.9901 83.9568 49.9901C83.6926 49.9901 83.4553 49.9362 83.2503 49.8229C83.0454 49.7097 82.8674 49.5479 82.7164 49.3321C82.5708 49.1164 82.4575 48.8521 82.3766 48.5447C82.2957 48.2319 82.258 47.8867 82.258 47.5038C82.258 47.1748 82.2903 46.8512 82.3497 46.5276C82.409 46.2094 82.5115 45.9236 82.6517 45.6701C82.7919 45.4166 82.9807 45.2117 83.2126 45.0553C83.4445 44.8989 83.7357 44.8234 84.0809 44.8234C84.2804 44.8234 84.4746 44.8557 84.658 44.9258C84.8467 44.9906 84.9816 45.0822 85.0679 45.1901L84.6364 46.0638C84.4746 45.8966 84.275 45.8157 84.0485 45.8157C83.8058 45.8157 83.6279 45.929 83.52 46.1501C83.4121 46.3712 83.3582 46.711 83.3582 47.1694C83.3582 47.6494 83.3798 48.027 83.4283 48.2912C83.4768 48.5555 83.547 48.7335 83.644 48.8252C83.7034 48.8845 83.7627 48.9276 83.8328 48.96C83.8975 48.9924 83.973 49.0085 84.0485 49.0085C84.1726 49.0085 84.2966 48.987 84.4045 48.9384C84.5177 48.8953 84.6256 48.809 84.7389 48.6849L85.1595 49.4778ZM87.5757 49.8984L87.3654 48.9007H86.4162L86.2004 49.8984H85.1595L86.4 44.9043H87.4733L88.6382 49.8984H87.5757ZM86.9879 46.8836C86.9663 46.7596 86.9501 46.6355 86.9393 46.5169C86.9285 46.3982 86.9177 46.2849 86.9123 46.1825H86.9016C86.8962 46.2849 86.8854 46.3982 86.8746 46.5169C86.8584 46.6355 86.8422 46.7596 86.8207 46.8836L86.6157 48.027H87.1928L86.9879 46.8836ZM91.8903 49.8984H90.9034V45.8858H90.3209L90.2885 46.5115C90.2831 46.6301 90.2777 46.7757 90.267 46.9483C90.2562 47.1209 90.2508 47.2989 90.24 47.4876C90.2292 47.6764 90.2184 47.8544 90.2076 48.0324C90.1968 48.2103 90.1807 48.3667 90.1699 48.4962C90.1537 48.658 90.1267 48.8306 90.089 49.0193C90.0512 49.2081 89.9811 49.3699 89.8732 49.5047C89.76 49.6557 89.6305 49.7582 89.4849 49.8067C89.3393 49.8553 89.2099 49.893 89.102 49.92L88.8162 49.9793L88.595 49.1272L88.7514 49.0679C88.8 49.0463 88.8431 49.0247 88.8917 48.9978C88.9402 48.9708 88.9888 48.9384 89.0319 48.9007C89.0858 48.8521 89.129 48.7874 89.1667 48.6957C89.2045 48.604 89.2315 48.5124 89.253 48.4045C89.2746 48.302 89.2908 48.1888 89.3016 48.0809C89.3123 47.9676 89.3231 47.8652 89.3285 47.7681C89.3393 47.6171 89.3501 47.4553 89.3609 47.2827C89.3717 47.1155 89.3825 46.9429 89.3879 46.7703C89.3932 46.5978 89.3986 46.4306 89.4094 46.2688C89.4148 46.107 89.4202 45.956 89.4202 45.8103L89.431 44.8989H91.8795V49.8984H91.8903ZM94.835 45.8805H93.8211V47.0562H94.4359V47.8867H93.8211V49.8984H92.8341V47.8867H92.3326V47.0562H92.8341V44.9097H94.9591L94.835 45.8805ZM97.1865 49.8984L96.9762 48.9007H96.027L95.8112 49.8984H94.7649L96.0054 44.9043H97.0786L98.2436 49.8984H97.1865ZM96.5986 46.8836C96.5771 46.7596 96.5609 46.6355 96.5501 46.5169C96.5393 46.3982 96.5285 46.2849 96.5231 46.1825H96.5123C96.507 46.2849 96.4962 46.3982 96.4854 46.5169C96.4692 46.6355 96.453 46.7596 96.4314 46.8836L96.2265 48.027H96.8036L96.5986 46.8836ZM100.342 49.8984V47.7951H99.5488V49.8984H98.5618V44.9043H99.5488V46.7434H100.342V44.9043H101.329V49.8984H100.342ZM34.8135 37.8013V0H44.9366V14.1897H45.724L54.7524 0H66.7038L54.3371 18.24L68.1007 37.8013H55.6746L45.6971 22.6787H44.9366V37.8013H34.8135ZM28.4117 0H0V13.0463C2.65348 6.99506 8.17079 3.26292 12.7874 2.63191C17.6198 1.96854 25.3645 4.31461 28.4117 9.69708V0ZM0 27.8616C6.13213 39.0526 10.053 44.311 7.71236 52.6598C12.4854 50.2436 14.578 45.3897 14.9393 40.9888C15.2683 36.987 14.5402 31.3996 10.1825 27.5542C15.0094 29.4634 21.1955 27.1712 21.7672 19.8742C21.929 16.0719 19.1515 12.3937 15.2306 12.3937C13.7312 12.3937 12.0917 12.9708 10.5816 14.4809C13.1757 15.1982 13.591 18.2346 11.3151 19.7825C9.50831 21.0121 7.17843 20.6831 6.04584 18.4342C5.27461 16.9079 5.32854 15.484 6.00809 13.9362C6.65528 12.4638 7.7609 11.2611 8.94741 10.2634C13.2998 6.61214 18.747 7.05438 22.5384 11.3798C24.2049 13.2836 25.7474 15.8939 25.7636 19.502C25.5748 21.3951 25.1595 23.2935 24.6364 25.2243C23.0508 31.0652 20.9151 36.7065 18.8818 42.391C16.9348 47.822 14.9933 53.253 13.0463 58.684H0V27.8616Z" fill="white"/>
<path fill-rule="evenodd" clip-rule="evenodd" d="M28.4116 33.9613L19.3293 58.684H28.4116V33.9613Z" fill="white"/>
</svg>
