<svg width="21" height="21" viewBox="0 0 21 21" fill="none" xmlns="http://www.w3.org/2000/svg">
<path fill-rule="evenodd" clip-rule="evenodd" d="M17.0919 12.8492L19.2132 10.7279C21.5467 8.39447 21.5467 4.5761 19.2132 2.24264C16.8798 -0.0908084 13.0614 -0.0908078 10.7279 2.24264L8.6066 4.36396C8.18234 4.78823 8.18234 5.35391 8.6066 5.77818C9.03087 6.20244 9.59655 6.20244 10.0208 5.77818L12.1421 3.65686C13.6978 2.10122 16.2434 2.10122 17.799 3.65686C19.3546 5.21249 19.3546 7.75808 17.799 9.31371L15.6777 11.435C15.2534 11.8593 15.2534 12.425 15.6777 12.8492C16.1019 13.2735 16.6676 13.2735 17.0919 12.8492ZM10.7279 19.2132L12.8492 17.0919C13.2735 16.6676 13.2735 16.1019 12.8492 15.6777C12.425 15.2534 11.8593 15.2534 11.435 15.6777L9.31371 17.799C7.75807 19.3546 5.21249 19.3546 3.65685 17.799C2.10122 16.2434 2.10122 13.6978 3.65685 12.1421L5.77817 10.0208C6.20244 9.59655 6.20244 9.03087 5.77817 8.6066C5.35391 8.18234 4.78823 8.18234 4.36396 8.6066L2.24264 10.7279C-0.0908117 13.0614 -0.0908117 16.8798 2.24264 19.2132C4.57609 21.5467 8.39447 21.5467 10.7279 19.2132ZM8.6066 14.2635L14.2634 8.6066C14.6877 8.18234 14.6877 7.61665 14.2634 7.19239C13.8392 6.76813 13.2735 6.76813 12.8492 7.19239L7.19238 12.8492C6.76812 13.2735 6.76812 13.8392 7.19238 14.2635C7.61665 14.6877 8.18233 14.6877 8.6066 14.2635Z" fill="#009645"/>
</svg>
